<?xml version="1.0" standalone="no"?>
<!DOCTYPE svg PUBLIC "-//W3C//DTD SVG 20010904//EN"
 "http://www.w3.org/TR/2001/REC-SVG-20010904/DTD/svg10.dtd">
<svg version="1.0" xmlns="http://www.w3.org/2000/svg"
 width="861.000000pt" height="861.000000pt" viewBox="0 0 861.000000 861.000000"
 preserveAspectRatio="xMidYMid meet">
<metadata>
Created by potrace 1.11, written by Peter Selinger 2001-2013
</metadata>
<g transform="translate(0.000000,861.000000) scale(0.100000,-0.100000)"
fill="#000000" stroke="none">
<path d="M4147 8604 c-1 -1 -56 -5 -122 -8 -66 -4 -136 -9 -155 -11 -19 -2
-59 -7 -89 -10 -50 -6 -67 -9 -136 -20 -16 -2 -48 -7 -70 -11 -64 -9 -184 -34
-270 -55 -44 -11 -89 -22 -100 -25 -11 -2 -51 -13 -90 -24 -38 -12 -77 -23
-85 -25 -45 -10 -272 -93 -390 -142 -123 -51 -388 -181 -467 -229 -72 -44
-149 -89 -158 -94 -19 -10 -70 -45 -83 -57 -7 -7 -17 -13 -22 -13 -10 0 -317
-229 -370 -276 -255 -226 -432 -405 -571 -579 -144 -181 -242 -318 -318 -445
-35 -58 -72 -118 -83 -133 -33 -47 -194 -376 -244 -498 -141 -344 -258 -783
-290 -1092 -3 -34 -8 -64 -9 -67 -18 -32 -27 -655 -12 -837 53 -656 262 -1305
602 -1868 64 -106 220 -334 284 -415 78 -98 80 -100 140 -170 504 -588 1174
-1036 1909 -1279 262 -87 569 -156 822 -186 30 -4 69 -8 85 -10 208 -25 694
-25 890 0 17 2 55 7 85 10 385 43 878 181 1236 346 595 274 1076 636 1519
1143 31 36 94 116 115 146 13 19 27 37 30 40 19 17 155 210 207 295 191 312
333 611 438 918 20 59 38 115 40 125 3 9 14 49 25 87 30 104 58 216 65 255 3
19 10 53 15 75 5 22 11 58 14 80 4 22 8 47 11 55 2 8 6 38 10 65 3 28 8 61 10
75 5 25 8 55 20 190 20 231 20 499 0 759 -4 47 -8 93 -10 102 -2 10 -6 44 -10
76 -3 32 -8 65 -10 73 -2 8 -7 35 -10 60 -7 53 -9 68 -40 215 -53 255 -169
612 -270 830 -13 28 -41 89 -63 136 -63 136 -175 330 -288 500 -274 416 -631
792 -1019 1076 -55 40 -104 76 -110 81 -31 26 -228 148 -335 209 -192 109
-382 198 -610 286 -119 46 -357 121 -420 133 -14 3 -34 8 -45 11 -11 4 -24 8
-30 9 -49 10 -69 15 -135 29 -112 25 -256 48 -371 60 -30 4 -67 8 -84 10 -96
13 -567 28 -578 19z"/>
</g>
</svg>
