<?xml version="1.0" standalone="no"?>
<!DOCTYPE svg PUBLIC "-//W3C//DTD SVG 20010904//EN"
 "http://www.w3.org/TR/2001/REC-SVG-20010904/DTD/svg10.dtd">
<svg version="1.0" xmlns="http://www.w3.org/2000/svg"
 width="430.000000pt" height="430.000000pt" viewBox="0 0 430.000000 430.000000"
 preserveAspectRatio="xMidYMid meet">
<metadata>
Created by potrace 1.11, written by Peter Selinger 2001-2013
</metadata>
<g transform="translate(0.000000,430.000000) scale(0.100000,-0.100000)"
fill="#000000" stroke="none">
<path d="M1969 4295 c-2 -1 -31 -6 -64 -9 -53 -5 -101 -13 -208 -32 -16 -3
-76 -19 -133 -35 -351 -98 -674 -289 -939 -554 -316 -314 -534 -743 -600
-1175 -21 -136 -24 -183 -21 -380 3 -180 8 -237 30 -350 65 -341 190 -627 394
-899 80 -106 233 -271 327 -352 295 -251 672 -425 1050 -484 114 -18 181 -23
335 -23 201 0 287 8 457 43 411 85 776 286 1082 594 62 63 138 148 169 190 31
42 58 78 62 81 17 14 136 219 179 310 80 169 160 415 177 545 2 16 6 41 9 55
14 68 20 171 20 330 0 205 -9 298 -41 445 -9 39 -18 80 -20 93 -2 12 -20 68
-38 125 -90 274 -227 518 -410 732 -299 349 -704 596 -1146 699 -58 13 -130
27 -160 31 -30 4 -64 10 -75 12 -23 6 -431 13 -436 8z"/>
</g>
</svg>
