<svg xmlns="http://www.w3.org/2000/svg" xmlns:xlink="http://www.w3.org/1999/xlink" viewBox="0 0 500 500"><defs><clipPath id="freepik--clip-path--inject-34"><path d="M256.48,316.26s2.92,11.47,4.27,14.39,6.07,6.52,8.77,8.1,27.89,16.19,30.59,17.32a12.85,12.85,0,0,1,5.4,4.72c.23.67-.9,8.55-2,12.37s-1.8,5.85-.45,6.07,3.6-1.57,6.74-4.49,2.7-7.2,4.05-10.13,2.25-4.49,2.25-6.74-4.27-2.93-6.3-4.28-7-6.07-13.94-14.17-19.34-10.34-20-10.57-.45-10.79-.45-10.79S264.8,319.63,256.48,316.26Z" style="fill:#fff;stroke:#263238;stroke-linecap:round;stroke-linejoin:round"></path></clipPath><clipPath id="freepik--clip-path-2--inject-34"><path d="M280.09,322.78s.68,10.57,2.48,12.59,19.12,13.05,24.29,18.22,14.39,12.15,14.62,12.82a65.59,65.59,0,0,1,.67,11.25c-.22,3.6-.67,7.65,2.7,7.65s5.18-2.25,6.3-8.33.45-8.77.45-11.24.68-6.75-1.8-8.55a8,8,0,0,0-6.07-1.57c-1.13.22-7.87-4.5-10.57-9s-4.5-11.7-9.22-15.07-9-6.52-9-6.52l-1.35-6.53S286.62,322.33,280.09,322.78Z" style="fill:#fff;stroke:#263238;stroke-linecap:round;stroke-linejoin:round"></path></clipPath><clipPath id="freepik--clip-path-3--inject-34"><path d="M256.12,260.61s-4.28,11-5,15.3,1.8,8.54.45,12.82-.09,26.18-.09,26.18,7.87,5.17,14.62,6.74,8.1-.45,8.1-.45v2.93a25.84,25.84,0,0,0,11.24.67c5.4-1.12,14.62-6.74,14.62-6.74s-6.88-26.18-6.88-29.78.45-7.65-.45-13.27-4.72-14.85-4.72-14.85S269.61,265.78,256.12,260.61Z" style="fill:#FFF969;stroke:#263238;stroke-linecap:round;stroke-linejoin:round"></path></clipPath><clipPath id="freepik--clip-path-4--inject-34"><path d="M281.16,203.78s-3.45-1.72-8-4.39a70.1,70.1,0,0,1-7.38-4.91s-1.7-7-4.52-11.68-3.6-6.11-3.6-6.11,6.11-6.89,8.46-11.58,6.89-13.78,9.24-14.88,7-3.29,8.45-3.29,2-2.35,3.45-3.6,3.44-1.56,3.44-2.66-3-.16-3-.16,5.32-5.79,5.32-7.2-1.57-.94-1.57-.94,0-2.19-.78-2.35a5,5,0,0,0-1.88.16s-1.41-1.41-2.19-.47-1.72,2.19-1.72,2.19a5,5,0,0,0-2.82,1.41c-.78,1.1-7.83,6.58-9.08,8.77a10.28,10.28,0,0,0-1.1,5s-13.46,11.43-18.16,17.54-8.3,10.17-8.14,12.52,7.2,18,9.86,23,8.93,15.34,8.93,15.34-7.05,10.8-7.68,17.69-1.25,18.17-1.87,21-1.73,5.33-.94,6.74,6.88,4.85,10.49,5.48,15-1.73,19.57-3,5.95-3.76,5.95-4.7-1.57-6.41-1.41-7.82,1.88-11.9,4.85-14.41,8.46-8.61,8.46-8.61,8.45,10.49,13.15,13.78,9.55,8.77,11.74,8.3,13-18,15.66-23.8,3.44-10,4.85-11.12,3.45-6.57,3.76-7.67-.94-10.8-.94-10.8L348.8,196l-1.25-.78s-1.1.15-1.73.31-1.25,8.61-1.25,8.61l-2.82,2.35-.31-5.48s-1.25-.94-1.72-.16,0,5.33-.63,6.89a10.5,10.5,0,0,0-.16,5.8,8.44,8.44,0,0,1,.63,2.34,14.46,14.46,0,0,1-3.13,6.27c-2.51,2.82-12.84,13.78-12.84,13.78s-7.52-12.22-9.39-15.19-1.73-6.58-5.8-8.93-9.86-2.35-9.86-2.35-6-2.66-8.93-3.6S281.16,203.78,281.16,203.78Z" style="fill:#fff;stroke:#263238;stroke-linecap:round;stroke-linejoin:round"></path></clipPath><clipPath id="freepik--clip-path-5--inject-34"><path d="M283.56,220.35c4.06-5.65,11.58-9.64,14.63-11.09-1.29-.57-6-2.64-8.58-3.45-3-.94-8.45-2-8.45-2s-1.43-.72-3.66-1.94c-8,3.52-13.09,13.68-13.09,13.68s-7.05,10.8-7.68,17.69-1.25,18.17-1.87,21-1.73,5.33-.94,6.74,6.88,4.85,10.49,5.48,15-1.73,19.57-3,5.95-3.76,5.95-4.7-1.57-6.41-1.41-7.82,1.88-11.9,4.85-14.41c.39-.33.82-.72,1.28-1.14C286.65,236.19,278.6,227.24,283.56,220.35Z" style="fill:#FFF969;stroke:#263238;stroke-linecap:round;stroke-linejoin:round"></path></clipPath><clipPath id="freepik--clip-path-6--inject-34"><path d="M298.28,193.66s5.17-4,5.17-9.61-5.74-11.77-11.19-11.91a12.32,12.32,0,0,0-9.9,4.3c-1.15,1.44-1.86,2.15-1.86,2.87s.28,1.72-.15,2.15-2.44,1.44-2.72,3-.58,2.87-.72,3.73-1.87,6.74-1.72,8.32,4.44,3.87,4.44,3.87a4.09,4.09,0,0,1,.58,3.73c-.72,2.15-3.44,4.88-2,5.59s11.33-.71,13.49-1,.86-1.58.86-3.44S290.39,198.25,298.28,193.66Z" style="fill:#fff;stroke:#263238;stroke-linecap:round;stroke-linejoin:round"></path></clipPath><clipPath id="freepik--clip-path-7--inject-34"><circle cx="271.31" cy="130.03" r="16.29" style="fill:#FFF969;stroke:#263238;stroke-linecap:round;stroke-linejoin:round"></circle></clipPath><clipPath id="freepik--clip-path-8--inject-34"><path d="M206.11,364.69l-2.44,5.7s-8.86,3.88-13.07,12.32-11.07,17.1-14.61,21.21-4.43,5.24-4.21,8.89,4.65,4.79,8.2,9.58c1,1.41,2.43,5.24,7.75,8.44,3,1.79,4.2.45,4-3.65s-4.43-10.27-5.09-14.83-1.77-5.24,0-6.84S205,388.63,210.76,382s8.41-15.74,8.41-15.74S210.76,367,206.11,364.69Z" style="fill:#fff;stroke:#263238;stroke-linecap:round;stroke-linejoin:round"></path></clipPath><clipPath id="freepik--clip-path-9--inject-34"><path d="M210.76,367.65,208.1,374a109.72,109.72,0,0,0-13.95,8.67c-6,4.56-13.51,15.5-16.39,18.24s-8.39,5.07-8.39,5.07-7.53,1.37-8.19,4.56-.67,13.46.44,16.65,8.42,11.4,10.63,11.4,2.66-1.82,2.66-3.42-1.11-7.75-1.11-10.26,1.33-11.63,1.33-11.63,17.69-11,25-16.47S219,387,221.61,384.3s6.64-16.65,6.64-16.65,2.21-7.75,2-9.12-10.85-3-14.39-2.28S210.76,367.65,210.76,367.65Z" style="fill:#fff;stroke:#263238;stroke-linecap:round;stroke-linejoin:round"></path></clipPath><clipPath id="freepik--clip-path-10--inject-34"><path d="M214.74,303.8s-5.09,10.26-6.2,15.05.22,13.23,1.33,16.19.66,5.47-.22,9.35-7.53,20.07-7.53,20.07,6.64,5.47,10,6.39,6.86,1.59,6.86,1.59l5.54-6.38-1.55,7.29s8,1.6,9.08,1.6h3.32c4.61-21.33,11.32-41.58,7.75-63.63-.45-2.73-.67-4.33-.67-4.33s-8.19,2.05-13.73.45S214.74,303.8,214.74,303.8Z" style="fill:#FFF969;stroke:#263238;stroke-linecap:round;stroke-linejoin:round"></path></clipPath><clipPath id="freepik--clip-path-11--inject-34"><path d="M238.66,265.2a81.28,81.28,0,0,1,8.73,5.57s2.09-5.57,3.44-10,3.22-11,3.22-11-2.08-3.53-3.53-4.39-2.71-3.75-3.44-4.93,1.25-1.39,1.25-1.39-1.77-3.75-2.18-5.14.62-2.25,1.14-1.61a26.58,26.58,0,0,1,1.56,3,16.77,16.77,0,0,0,2.29,2.68s-1.35-3.11-1.66-4.07-1-2.68-.42-2.68,1.56,1,2.08,1.93,2.81,4.5,2.81,4.5l-1.77-4.29s-.1-1.39.73-1.07,2.29,4.39,2.29,4.39-.52-3.74.2-3.64.42,2,.84,3.11,1,4.82,1.66,6.32a11.45,11.45,0,0,1,.62,4.6c-.1.75-.31,3.54-.31,3.54s-.21,17.14-.83,21.64-3.22,9.64-4.16,11.46a3.64,3.64,0,0,1-3.95,1.82c-1-.21-6-2.25-6-2.25a24.94,24.94,0,0,0-3-10.6c-2.91-5.15-4.16-8.68-3.54-8.47A19.34,19.34,0,0,1,238.66,265.2Z" style="fill:#fff;stroke:#263238;stroke-linecap:round;stroke-linejoin:round"></path></clipPath><clipPath id="freepik--clip-path-12--inject-34"><path d="M234.89,183.84s-10.4,22.8-11.73,27.14-.89,7.29-1.11,9.8-7.31,17.56-8,18.93-8.86,11.4-10,18.7-.44,11.86.45,13.69,7.75,11.17,9.08,14.14S215,294.45,215,297s-3.1,7.53-1.55,9.13,9.3,5,15.06,5.93,10.85,1.36,12.85-.69a20.51,20.51,0,0,0,4.42-9.12c.45-2.74.67-16.88-.22-23.72s-8.85-18-10-20.3-9.08-12.31-9.08-12.31,7.31-18.93,8-25.09,4.65-36,4.65-36A4.71,4.71,0,0,0,234.89,183.84Z" style="fill:#fff;stroke:#263238;stroke-linecap:round;stroke-linejoin:round"></path></clipPath><clipPath id="freepik--clip-path-13--inject-34"><path d="M221.61,267.76c-3.55,4.11-10.19-.68-12.4-5.47-1.74-3.75-1.44-10.56-1.22-13.35-1.81,3.1-3.43,6.51-3.88,9.47-1.1,7.3-.44,11.86.45,13.69s7.75,11.17,9.08,14.14S215,294.45,215,297s-3.1,7.53-1.55,9.13,9.3,5,15.06,5.93,10.85,1.36,12.85-.69a20.51,20.51,0,0,0,4.42-9.12c.45-2.74.67-16.88-.22-23.72s-8.85-18-10-20.3-9.08-12.31-9.08-12.31V250C226.48,252.48,225.15,263.66,221.61,267.76Z" style="fill:#FFF969;stroke:#263238;stroke-linecap:round;stroke-linejoin:round"></path></clipPath></defs><g id="freepik--background-simple--inject-34"><path d="M395.62,232.11c-16.61-41.82-49.15-78-90.44-95.51-43.53-18.48-105-24.79-144.74,5.35-28,21.22-31.32,60-30.13,92.41.59,16,2.59,31.88,4.2,47.81.83,8.3,3.55,20,.06,28.06-9.48,21.8-78.66,44.55-49.28,93.83,20.65,34.64,77.94,44.73,114.11,47.43,57.43,4.28,118.62-10.79,161-51.48C406.62,355.67,419.14,291.35,395.62,232.11Z" style="fill:#FFF969"></path><path d="M395.62,232.11c-16.61-41.82-49.15-78-90.44-95.51-43.53-18.48-105-24.79-144.74,5.35-28,21.22-31.32,60-30.13,92.41.59,16,2.59,31.88,4.2,47.81.83,8.3,3.55,20,.06,28.06-9.48,21.8-78.66,44.55-49.28,93.83,20.65,34.64,77.94,44.73,114.11,47.43,57.43,4.28,118.62-10.79,161-51.48C406.62,355.67,419.14,291.35,395.62,232.11Z" style="fill:#fff;opacity:0.8"></path></g><g id="freepik--Stadium--inject-34"><path d="M106.18,337.23,157.7,363.3l95.78,13.77,138-18.86a146.68,146.68,0,0,0,9.25-23.08l-148.53,20.3-95.78-13.78L122,324.48C117.21,328.5,111.68,332.71,106.18,337.23Z" style="opacity:0.2"></path><path d="M145.9,386.91l101,12.47,131-19.25a150.93,150.93,0,0,0,9.17-13.91l-138.6,17.92-97.35-13.63L98.58,343.79c-6.32,5.78-12,12.1-15.84,19.18Z" style="opacity:0.2"></path><circle cx="109.29" cy="398.05" r="3.79" style="fill:#FFF969"></circle><circle cx="129.51" cy="401.21" r="3.79" style="fill:#fff"></circle><path d="M124.46,406.27a3.79,3.79,0,1,1-3.79-3.79A3.79,3.79,0,0,1,124.46,406.27Z" style="fill:#FFF969"></path><path d="M124.46,406.27a3.79,3.79,0,1,1-3.79-3.79A3.79,3.79,0,0,1,124.46,406.27Z" style="fill:#fff;opacity:0.5"></path><circle cx="109.29" cy="383.52" r="3.79" style="fill:#FFF969"></circle><circle cx="129.51" cy="386.68" r="3.79" style="fill:#fff"></circle><path d="M124.46,391.74a3.79,3.79,0,1,1-3.79-3.8A3.79,3.79,0,0,1,124.46,391.74Z" style="fill:#FFF969"></path><path d="M124.46,391.74a3.79,3.79,0,1,1-3.79-3.8A3.79,3.79,0,0,1,124.46,391.74Z" style="fill:#fff;opacity:0.5"></path><circle cx="109.93" cy="412.58" r="3.79" style="fill:#FFF969"></circle><circle cx="130.14" cy="415.74" r="3.79" style="fill:#fff"></circle><path d="M125.09,420.8A3.79,3.79,0,1,1,121.3,417,3.79,3.79,0,0,1,125.09,420.8Z" style="fill:#FFF969"></path><path d="M125.09,420.8A3.79,3.79,0,1,1,121.3,417,3.79,3.79,0,0,1,125.09,420.8Z" style="fill:#fff;opacity:0.5"></path><path d="M150.81,413.48a3.79,3.79,0,1,1-1.25,5.22A3.79,3.79,0,0,1,150.81,413.48Z" style="fill:#FFF969"></path><path d="M142.9,394.61a3.79,3.79,0,1,1-1.24,5.21A3.8,3.8,0,0,1,142.9,394.61Z" style="fill:#fff"></path><path d="M151.84,399.49a3.79,3.79,0,1,1-1.24,5.22A3.8,3.8,0,0,1,151.84,399.49Z" style="fill:#FFF969"></path><path d="M151.84,399.49a3.79,3.79,0,1,1-1.24,5.22A3.8,3.8,0,0,1,151.84,399.49Z" style="fill:#fff;opacity:0.5"></path><circle cx="203.76" cy="429.56" r="3.79" transform="translate(-261.26 528.57) rotate(-76.64)" style="fill:#FFF969"></circle><path d="M193.86,407.46a3.79,3.79,0,1,1-1.24,5.22A3.8,3.8,0,0,1,193.86,407.46Z" style="fill:#fff"></path><path d="M202.8,412.35a3.79,3.79,0,1,1-1.24,5.21A3.79,3.79,0,0,1,202.8,412.35Z" style="fill:#FFF969"></path><path d="M202.8,412.35a3.79,3.79,0,1,1-1.24,5.21A3.79,3.79,0,0,1,202.8,412.35Z" style="fill:#fff;opacity:0.5"></path><path d="M242.91,425.93a3.79,3.79,0,1,1,4.86,2.27A3.8,3.8,0,0,1,242.91,425.93Z" style="fill:#FFF969"></path><path d="M222.82,429.83a3.79,3.79,0,1,1,4.86,2.27A3.8,3.8,0,0,1,222.82,429.83Z" style="fill:#fff"></path><circle cx="232.99" cy="420.78" r="3.79" transform="translate(-246.79 454.61) rotate(-65.06)" style="fill:#FFF969"></circle><circle cx="232.99" cy="420.78" r="3.79" transform="translate(-246.79 454.61) rotate(-65.06)" style="fill:#fff;opacity:0.5"></circle><path d="M295.27,422.09a3.79,3.79,0,1,1,4.85,2.27A3.8,3.8,0,0,1,295.27,422.09Z" style="fill:#FFF969"></path><path d="M275.18,426a3.79,3.79,0,1,1,4.85,2.27A3.8,3.8,0,0,1,275.18,426Z" style="fill:#fff"></path><path d="M281.78,418.23a3.79,3.79,0,1,1,4.86,2.27A3.8,3.8,0,0,1,281.78,418.23Z" style="fill:#FFF969"></path><path d="M281.78,418.23a3.79,3.79,0,1,1,4.86,2.27A3.8,3.8,0,0,1,281.78,418.23Z" style="fill:#fff;opacity:0.5"></path><path d="M327.49,418.3a3.79,3.79,0,1,1,4.85,2.27A3.8,3.8,0,0,1,327.49,418.3Z" style="fill:#FFF969"></path><path d="M307.4,422.2a3.79,3.79,0,1,1,4.86,2.27A3.8,3.8,0,0,1,307.4,422.2Z" style="fill:#fff"></path><path d="M314,414.44a3.79,3.79,0,1,1,4.86,2.27A3.8,3.8,0,0,1,314,414.44Z" style="fill:#FFF969"></path><path d="M314,414.44a3.79,3.79,0,1,1,4.86,2.27A3.8,3.8,0,0,1,314,414.44Z" style="fill:#fff;opacity:0.5"></path><circle cx="341.44" cy="399.18" r="3.79" transform="translate(-164.49 540.46) rotate(-65.06)" style="fill:#FFF969"></circle><path d="M317.79,404.37a3.79,3.79,0,1,1,4.85,2.28A3.79,3.79,0,0,1,317.79,404.37Z" style="fill:#fff"></path><path d="M324.39,396.61a3.79,3.79,0,1,1,4.85,2.28A3.79,3.79,0,0,1,324.39,396.61Z" style="fill:#FFF969"></path><path d="M324.39,396.61a3.79,3.79,0,1,1,4.85,2.28A3.79,3.79,0,0,1,324.39,396.61Z" style="fill:#fff;opacity:0.5"></path><path d="M288.19,437.14a3.79,3.79,0,1,1,4.85,2.28A3.79,3.79,0,0,1,288.19,437.14Z" style="fill:#FFF969"></path><circle cx="271.67" cy="439.75" r="3.79" transform="translate(-241.63 500.65) rotate(-65.06)" style="fill:#fff"></circle><circle cx="278.27" cy="431.99" r="3.79" transform="translate(-230.78 502.15) rotate(-65.06)" style="fill:#FFF969"></circle><circle cx="278.27" cy="431.99" r="3.79" transform="translate(-230.78 502.15) rotate(-65.06)" style="fill:#fff;opacity:0.5"></circle><path d="M271.26,412a3.79,3.79,0,1,1,4.85,2.27A3.8,3.8,0,0,1,271.26,412Z" style="fill:#FFF969"></path><path d="M251.17,415.88a3.79,3.79,0,1,1,4.86,2.27A3.8,3.8,0,0,1,251.17,415.88Z" style="fill:#fff"></path><path d="M257.77,408.12a3.79,3.79,0,1,1,4.86,2.28A3.8,3.8,0,0,1,257.77,408.12Z" style="fill:#FFF969"></path><path d="M257.77,408.12a3.79,3.79,0,1,1,4.86,2.28A3.8,3.8,0,0,1,257.77,408.12Z" style="fill:#fff;opacity:0.5"></path><path d="M225.14,440.41a3.79,3.79,0,1,1,4.85,2.28A3.79,3.79,0,0,1,225.14,440.41Z" style="fill:#FFF969"></path><path d="M205.05,444.31a3.79,3.79,0,1,1,4.85,2.28A3.79,3.79,0,0,1,205.05,444.31Z" style="fill:#fff"></path><circle cx="215.22" cy="435.26" r="3.79" transform="translate(-266.01 370.54) rotate(-56.03)" style="fill:#FFF969"></circle><circle cx="215.22" cy="435.26" r="3.79" transform="translate(-266.01 370.54) rotate(-56.03)" style="fill:#fff;opacity:0.5"></circle><path d="M193.77,441.11a3.79,3.79,0,1,1,4.85,2.28A3.79,3.79,0,0,1,193.77,441.11Z" style="fill:#FFF969"></path><path d="M173.68,445a3.79,3.79,0,1,1,4.85,2.28A3.79,3.79,0,0,1,173.68,445Z" style="fill:#fff"></path><path d="M180.28,437.25a3.79,3.79,0,1,1,4.86,2.28A3.79,3.79,0,0,1,180.28,437.25Z" style="fill:#FFF969"></path><path d="M180.28,437.25a3.79,3.79,0,1,1,4.86,2.28A3.79,3.79,0,0,1,180.28,437.25Z" style="fill:#fff;opacity:0.5"></path><path d="M177.53,430.28a3.79,3.79,0,1,1,4.85,2.27A3.8,3.8,0,0,1,177.53,430.28Z" style="fill:#FFF969"></path><path d="M157.44,434.18a3.79,3.79,0,1,1,4.85,2.27A3.8,3.8,0,0,1,157.44,434.18Z" style="fill:#fff"></path><path d="M164,426.42a3.79,3.79,0,1,1,4.86,2.27A3.8,3.8,0,0,1,164,426.42Z" style="fill:#FFF969"></path><path d="M164,426.42a3.79,3.79,0,1,1,4.86,2.27A3.8,3.8,0,0,1,164,426.42Z" style="fill:#fff;opacity:0.5"></path><path d="M234.84,408.89a3.79,3.79,0,1,1,4.85,2.27A3.79,3.79,0,0,1,234.84,408.89Z" style="fill:#FFF969"></path><circle cx="218.31" cy="411.5" r="3.79" transform="translate(-244.83 361.62) rotate(-55.91)" style="fill:#fff"></circle><circle cx="224.91" cy="403.74" r="3.79" transform="translate(-235.32 361.54) rotate(-55.64)" style="fill:#FFF969"></circle><circle cx="224.91" cy="403.74" r="3.79" transform="translate(-235.32 361.54) rotate(-55.64)" style="fill:#fff;opacity:0.5"></circle><circle cx="186.88" cy="398.58" r="3.79" transform="translate(-253.33 399.95) rotate(-65.06)" style="fill:#FFF969"></circle><circle cx="166.79" cy="402.48" r="3.79" transform="translate(-268.49 383.99) rotate(-65.06)" style="fill:#fff"></circle><path d="M169.82,396a3.79,3.79,0,1,1,4.86,2.28A3.79,3.79,0,0,1,169.82,396Z" style="fill:#FFF969"></path><path d="M169.82,396a3.79,3.79,0,1,1,4.86,2.28A3.79,3.79,0,0,1,169.82,396Z" style="fill:#fff;opacity:0.5"></path><path d="M247.37,434.79a3.79,3.79,0,1,1-5.35.34A3.79,3.79,0,0,1,247.37,434.79Z" style="fill:#FFF969"></path><path d="M263.12,421.73a3.79,3.79,0,1,1-5.35.33A3.79,3.79,0,0,1,263.12,421.73Z" style="fill:#fff"></path><path d="M261.05,431.71a3.79,3.79,0,1,1-5.35.33A3.79,3.79,0,0,1,261.05,431.71Z" style="fill:#FFF969"></path><path d="M261.05,431.71a3.79,3.79,0,1,1-5.35.33A3.79,3.79,0,0,1,261.05,431.71Z" style="fill:#fff;opacity:0.5"></path><path d="M295.39,407.66A3.79,3.79,0,1,1,290,408,3.79,3.79,0,0,1,295.39,407.66Z" style="fill:#FFF969"></path><path d="M311.14,394.6a3.79,3.79,0,1,1-5.35.33A3.79,3.79,0,0,1,311.14,394.6Z" style="fill:#fff"></path><path d="M309.07,404.57a3.79,3.79,0,1,1-5.35.34A3.79,3.79,0,0,1,309.07,404.57Z" style="fill:#FFF969"></path><path d="M309.07,404.57a3.79,3.79,0,1,1-5.35.34A3.79,3.79,0,0,1,309.07,404.57Z" style="fill:#fff;opacity:0.5"></path><path d="M146.79,414.25a3.79,3.79,0,1,1,3.56-4A3.8,3.8,0,0,1,146.79,414.25Z" style="fill:#FFF969"></path><path d="M144.85,434.62a3.79,3.79,0,1,1,3.56-4A3.8,3.8,0,0,1,144.85,434.62Z" style="fill:#fff"></path><path d="M139.28,426.09a3.79,3.79,0,1,1,3.55-4A3.8,3.8,0,0,1,139.28,426.09Z" style="fill:#FFF969"></path><path d="M139.28,426.09a3.79,3.79,0,1,1,3.55-4A3.8,3.8,0,0,1,139.28,426.09Z" style="fill:#fff;opacity:0.5"></path><path d="M95.62,380.76a3.79,3.79,0,1,1,3.55-4A3.8,3.8,0,0,1,95.62,380.76Z" style="fill:#FFF969"></path><circle cx="93.45" cy="397.35" r="3.79" transform="translate(-312.63 438.83) rotate(-82.6)" style="fill:#fff"></circle><path d="M88.1,392.61a3.79,3.79,0,1,1,3.56-4A3.79,3.79,0,0,1,88.1,392.61Z" style="fill:#FFF969"></path><path d="M88.1,392.61a3.79,3.79,0,1,1,3.56-4A3.79,3.79,0,0,1,88.1,392.61Z" style="fill:#fff;opacity:0.5"></path><polyline points="117 322 156.39 341.65 252.16 355.43 409 334" style="fill:none;stroke:#263238;stroke-linecap:round;stroke-linejoin:round"></polyline><polyline points="95.39 342.31 151.14 370.51 246.92 384.29 394 365" style="fill:none;stroke:#263238;stroke-linecap:round;stroke-linejoin:round"></polyline></g><g id="freepik--Sparkles--inject-34"><path d="M368.85,268.52l11.78-1.85-11.78-1.85a5,5,0,0,1-4.12-4.12l-1.85-11.78L361,260.7a5,5,0,0,1-4.11,4.12l-11.79,1.85,11.79,1.85a4.92,4.92,0,0,1,4.11,4.11l1.85,11.79,1.85-11.79A5,5,0,0,1,368.85,268.52Z" style="fill:#FFF969"></path><path d="M368.85,268.52l11.78-1.85-11.78-1.85a5,5,0,0,1-4.12-4.12l-1.85-11.78L361,260.7a5,5,0,0,1-4.11,4.12l-11.79,1.85,11.79,1.85a4.92,4.92,0,0,1,4.11,4.11l1.85,11.79,1.85-11.79A5,5,0,0,1,368.85,268.52Z" style="fill:#fff;opacity:0.4"></path><path d="M169.78,211.78l11.78-1.86-11.78-1.85a4.92,4.92,0,0,1-4.11-4.11l-1.85-11.79L162,204a4.92,4.92,0,0,1-4.11,4.11l-11.78,1.85,11.78,1.86a4.92,4.92,0,0,1,4.11,4.11l1.86,11.78,1.85-11.78A4.92,4.92,0,0,1,169.78,211.78Z" style="fill:#FFF969"></path><path d="M169.78,211.78l11.78-1.86-11.78-1.85a4.92,4.92,0,0,1-4.11-4.11l-1.85-11.79L162,204a4.92,4.92,0,0,1-4.11,4.11l-11.78,1.85,11.78,1.86a4.92,4.92,0,0,1,4.11,4.11l1.86,11.78,1.85-11.78A4.92,4.92,0,0,1,169.78,211.78Z" style="fill:#fff;opacity:0.4"></path><path d="M342.73,297.87l11-1.73-11-1.74a4.64,4.64,0,0,1-3.86-3.86l-1.73-11-1.74,11a4.63,4.63,0,0,1-3.85,3.86l-11.05,1.74,11.05,1.73a4.64,4.64,0,0,1,3.85,3.86l1.74,11,1.73-11A4.65,4.65,0,0,1,342.73,297.87Z" style="fill:#FFF969"></path><path d="M342.73,297.87l11-1.73-11-1.74a4.64,4.64,0,0,1-3.86-3.86l-1.73-11-1.74,11a4.63,4.63,0,0,1-3.85,3.86l-11.05,1.74,11.05,1.73a4.64,4.64,0,0,1,3.85,3.86l1.74,11,1.73-11A4.65,4.65,0,0,1,342.73,297.87Z" style="fill:#fff;opacity:0.4"></path><path d="M179.56,289.11l8-1.25-8-1.25a3.33,3.33,0,0,1-2.78-2.78l-1.26-8-1.25,8a3.34,3.34,0,0,1-2.78,2.78l-8,1.25,8,1.25a3.34,3.34,0,0,1,2.78,2.78l1.25,8,1.26-8A3.33,3.33,0,0,1,179.56,289.11Z" style="fill:#FFF969"></path><path d="M179.56,289.11l8-1.25-8-1.25a3.33,3.33,0,0,1-2.78-2.78l-1.26-8-1.25,8a3.34,3.34,0,0,1-2.78,2.78l-8,1.25,8,1.25a3.34,3.34,0,0,1,2.78,2.78l1.25,8,1.26-8A3.33,3.33,0,0,1,179.56,289.11Z" style="fill:#fff;opacity:0.4"></path></g><g id="freepik--character-2--inject-34"><path d="M256.48,316.26s2.92,11.47,4.27,14.39,6.07,6.52,8.77,8.1,27.89,16.19,30.59,17.32a12.85,12.85,0,0,1,5.4,4.72c.23.67-.9,8.55-2,12.37s-1.8,5.85-.45,6.07,3.6-1.57,6.74-4.49,2.7-7.2,4.05-10.13,2.25-4.49,2.25-6.74-4.27-2.93-6.3-4.28-7-6.07-13.94-14.17-19.34-10.34-20-10.57-.45-10.79-.45-10.79S264.8,319.63,256.48,316.26Z" style="fill:#fff"></path><g style="clip-path:url(#freepik--clip-path--inject-34)"><path d="M256.48,316.26s2.92,11.47,4.27,14.39,6.07,6.52,8.77,8.1,27.89,16.19,30.59,17.32a12.85,12.85,0,0,1,5.4,4.72c.23.67-.9,8.55-2,12.37s-1.8,5.85-.45,6.07,3.6-1.57,6.74-4.49,2.7-7.2,4.05-10.13,2.25-4.49,2.25-6.74-4.27-2.93-6.3-4.28-7-6.07-13.94-14.17-19.34-10.34-20-10.57-.45-10.79-.45-10.79S264.8,319.63,256.48,316.26Z" style="opacity:0.27"></path></g><path d="M256.48,316.26s2.92,11.47,4.27,14.39,6.07,6.52,8.77,8.1,27.89,16.19,30.59,17.32a12.85,12.85,0,0,1,5.4,4.72c.23.67-.9,8.55-2,12.37s-1.8,5.85-.45,6.07,3.6-1.57,6.74-4.49,2.7-7.2,4.05-10.13,2.25-4.49,2.25-6.74-4.27-2.93-6.3-4.28-7-6.07-13.94-14.17-19.34-10.34-20-10.57-.45-10.79-.45-10.79S264.8,319.63,256.48,316.26Z" style="fill:none;stroke:#263238;stroke-linecap:round;stroke-linejoin:round"></path><path d="M309.78,353.59a42.19,42.19,0,0,1-5.26-4.7,13.28,13.28,0,0,1-3.28,7.76,12.72,12.72,0,0,1,4.27,4.14c.23.67-.9,8.55-2,12.37s-1.8,5.85-.45,6.07,3.6-1.57,6.74-4.49,2.7-7.2,4.05-10.13,2.25-4.49,2.25-6.74S311.81,354.94,309.78,353.59Z" style="fill:#fff;stroke:#263238;stroke-linecap:round;stroke-linejoin:round"></path><path d="M316.08,357.87c0-1.74-2.55-2.54-4.64-3.43a4.65,4.65,0,0,1-.53,3.2,6.61,6.61,0,0,1-5.4,3.15c.23.67-.9,8.55-2,12.37s-1.8,5.85-.45,6.07,3.6-1.57,6.74-4.49,2.7-7.2,4.05-10.13S316.08,360.12,316.08,357.87Z" style="fill:#FFF969;stroke:#263238;stroke-linecap:round;stroke-linejoin:round"></path><path d="M280.09,322.78s.68,10.57,2.48,12.59,19.12,13.05,24.29,18.22,14.39,12.15,14.62,12.82a65.59,65.59,0,0,1,.67,11.25c-.22,3.6-.67,7.65,2.7,7.65s5.18-2.25,6.3-8.33.45-8.77.45-11.24.68-6.75-1.8-8.55a8,8,0,0,0-6.07-1.57c-1.13.22-7.87-4.5-10.57-9s-4.5-11.7-9.22-15.07-9-6.52-9-6.52l-1.35-6.53S286.62,322.33,280.09,322.78Z" style="fill:#fff"></path><g style="clip-path:url(#freepik--clip-path-2--inject-34)"><path d="M280.09,322.78s.68,10.57,2.48,12.59,19.12,13.05,24.29,18.22,14.39,12.15,14.62,12.82a65.59,65.59,0,0,1,.67,11.25c-.22,3.6-.67,7.65,2.7,7.65s5.18-2.25,6.3-8.33.45-8.77.45-11.24.68-6.75-1.8-8.55a8,8,0,0,0-6.07-1.57c-1.13.22-7.87-4.5-10.57-9s-4.5-11.7-9.22-15.07-9-6.52-9-6.52l-1.35-6.53S286.62,322.33,280.09,322.78Z" style="opacity:0.1"></path><path d="M295.84,316.45s-.7,5.24,2.44,7.34,3.5,5.24.7,7-1.4,5.24,4.54,11.88,24.11,19.22,23.06,22.36-4.19,4.89-8.38,3.15-26.56-24.81-34.59-30.4-5.94-18.52-5.94-18.52S291.29,323.44,295.84,316.45Z" style="opacity:0.2"></path></g><path d="M280.09,322.78s.68,10.57,2.48,12.59,19.12,13.05,24.29,18.22,14.39,12.15,14.62,12.82a65.59,65.59,0,0,1,.67,11.25c-.22,3.6-.67,7.65,2.7,7.65s5.18-2.25,6.3-8.33.45-8.77.45-11.24.68-6.75-1.8-8.55a8,8,0,0,0-6.07-1.57c-1.13.22-7.87-4.5-10.57-9s-4.5-11.7-9.22-15.07-9-6.52-9-6.52l-1.35-6.53S286.62,322.33,280.09,322.78Z" style="fill:none;stroke:#263238;stroke-linecap:round;stroke-linejoin:round"></path><path d="M301.37,329.71c-3.6-2.59-6.43-4.68-6.43-4.68l-.23-1.12c-3.15,2.36-8.6,5.62-14,4.95.4,2.73,1,5.56,1.84,6.51a35,35,0,0,0,4.1,3.17C288.38,338.63,297.72,338.71,301.37,329.71Z" style="fill:#263238;stroke:#263238;stroke-linecap:round;stroke-linejoin:round"></path><path d="M329.8,357.19a8,8,0,0,0-6.07-1.57,5.52,5.52,0,0,1-2.49-1.14,8.77,8.77,0,0,1-2.23,6.09c-.72.79-1.37,1.44-1.95,2a41.74,41.74,0,0,1,4.42,3.87,65.59,65.59,0,0,1,.67,11.25c-.22,3.6-.67,7.65,2.7,7.65s5.18-2.25,6.3-8.33.45-8.77.45-11.24S332.28,359,329.8,357.19Z" style="fill:#fff;stroke:#263238;stroke-linecap:round;stroke-linejoin:round"></path><path d="M331.15,377c1.13-6.07.45-8.77.45-11.24s.68-6.75-1.8-8.55a8,8,0,0,0-6.07-1.57s3.15,1.12,3.6,3.82-.23,6.3-2.25,7.42a3.06,3.06,0,0,1-3.6-.45,65.59,65.59,0,0,1,.67,11.25c-.22,3.6-.67,7.65,2.7,7.65S330,383.06,331.15,377Z" style="fill:#FFF969;stroke:#263238;stroke-linecap:round;stroke-linejoin:round"></path><path d="M256.12,260.61s-4.28,11-5,15.3,1.8,8.54.45,12.82-.09,26.18-.09,26.18,7.87,5.17,14.62,6.74,8.1-.45,8.1-.45v2.93a25.84,25.84,0,0,0,11.24.67c5.4-1.12,14.62-6.74,14.62-6.74s-6.88-26.18-6.88-29.78.45-7.65-.45-13.27-4.72-14.85-4.72-14.85S269.61,265.78,256.12,260.61Z" style="fill:#FFF969"></path><g style="clip-path:url(#freepik--clip-path-3--inject-34)"><path d="M293.23,288.28c0-3.6.45-7.65-.45-13.27s-4.72-14.85-4.72-14.85-13.43,4.09-25.75,2.08l2.1,4.17s6.57,4.57,10,4.57,1.3-6.49,2.6-4.76,4.33,6.93,6.49,15.58,2.6,13.41,3.89,22.5,6.49,15.57,3.9,16-7.79-4.76-7.79-1.73c0,2-3.55,3.93-5.83,6.29a22.44,22.44,0,0,0,7.79-.06c5.4-1.12,14.62-6.75,14.62-6.75S293.23,291.88,293.23,288.28Z" style="opacity:0.2"></path><path d="M267.12,322.11s.77-25-.2-22.27-2.9,9.49-2.51,5.81,3.68-15.1,3.68-15.1,3.29,1.55,3.09,5,3.3,27.5,3.3,27.5v3.48" style="opacity:0.2"></path><line x1="275.82" y1="328.85" x2="270.29" y2="293.68"></line></g><path d="M256.12,260.61s-4.28,11-5,15.3,1.8,8.54.45,12.82-.09,26.18-.09,26.18,7.87,5.17,14.62,6.74,8.1-.45,8.1-.45v2.93a25.84,25.84,0,0,0,11.24.67c5.4-1.12,14.62-6.74,14.62-6.74s-6.88-26.18-6.88-29.78.45-7.65-.45-13.27-4.72-14.85-4.72-14.85S269.61,265.78,256.12,260.61Z" style="fill:none;stroke:#263238;stroke-linecap:round;stroke-linejoin:round"></path><path d="M294.37,316c-1.7-3-8.33-28-7.67-36,.54-6.44-1.64-15.19-2.68-18.86q-.81.18-1.77.36c1,3.5,3.17,12.19,2.66,18.35-.68,8.23,5.91,33.58,7.9,37.05a20.67,20.67,0,0,1,1.71,4.24l1.62-.86A22.19,22.19,0,0,0,294.37,316Z" style="fill:#263238"></path><path d="M293.62,303.34c-3.56-8-4.65-19.06-4.22-25.12.34-4.73-1.53-12.86-2.53-17.22,0-.16-.07-.32-.11-.48L285,261c0,.15.07.29.11.45,1,4.27,2.81,12.23,2.49,16.69-.44,6.2,1.66,21.16,5.38,29.53a82.24,82.24,0,0,1,4.19,12.12l1.62-.91A139,139,0,0,0,293.62,303.34Z" style="fill:#263238"></path><line x1="301.83" y1="227.89" x2="297.28" y2="225.52" style="fill:none;stroke:#263238;stroke-linecap:round;stroke-linejoin:round"></line><line x1="298.85" y1="225.07" x2="295.25" y2="226.42" style="fill:none;stroke:#263238;stroke-linecap:round;stroke-linejoin:round"></line><path d="M281.16,203.78s-3.45-1.72-8-4.39a70.1,70.1,0,0,1-7.38-4.91s-1.7-7-4.52-11.68-3.6-6.11-3.6-6.11,6.11-6.89,8.46-11.58,6.89-13.78,9.24-14.88,7-3.29,8.45-3.29,2-2.35,3.45-3.6,3.44-1.56,3.44-2.66-3-.16-3-.16,5.32-5.79,5.32-7.2-1.57-.94-1.57-.94,0-2.19-.78-2.35a5,5,0,0,0-1.88.16s-1.41-1.41-2.19-.47-1.72,2.19-1.72,2.19a5,5,0,0,0-2.82,1.41c-.78,1.1-7.83,6.58-9.08,8.77a10.28,10.28,0,0,0-1.1,5s-13.46,11.43-18.16,17.54-8.3,10.17-8.14,12.52,7.2,18,9.86,23,8.93,15.34,8.93,15.34-7.05,10.8-7.68,17.69-1.25,18.17-1.87,21-1.73,5.33-.94,6.74,6.88,4.85,10.49,5.48,15-1.73,19.57-3,5.95-3.76,5.95-4.7-1.57-6.41-1.41-7.82,1.88-11.9,4.85-14.41,8.46-8.61,8.46-8.61,8.45,10.49,13.15,13.78,9.55,8.77,11.74,8.3,13-18,15.66-23.8,3.44-10,4.85-11.12,3.45-6.57,3.76-7.67-.94-10.8-.94-10.8L348.8,196l-1.25-.78s-1.1.15-1.73.31-1.25,8.61-1.25,8.61l-2.82,2.35-.31-5.48s-1.25-.94-1.72-.16,0,5.33-.63,6.89a10.5,10.5,0,0,0-.16,5.8,8.44,8.44,0,0,1,.63,2.34,14.46,14.46,0,0,1-3.13,6.27c-2.51,2.82-12.84,13.78-12.84,13.78s-7.52-12.22-9.39-15.19-1.73-6.58-5.8-8.93-9.86-2.35-9.86-2.35-6-2.66-8.93-3.6S281.16,203.78,281.16,203.78Z" style="fill:#fff"></path><g style="clip-path:url(#freepik--clip-path-4--inject-34)"><path d="M281.16,203.78s-3.45-1.72-8-4.39a70.1,70.1,0,0,1-7.38-4.91s-1.7-7-4.52-11.68-3.6-6.11-3.6-6.11,6.11-6.89,8.46-11.58,6.89-13.78,9.24-14.88,7-3.29,8.45-3.29,2-2.35,3.45-3.6,3.44-1.56,3.44-2.66-3-.16-3-.16,5.32-5.79,5.32-7.2-1.57-.94-1.57-.94,0-2.19-.78-2.35a5,5,0,0,0-1.88.16s-1.41-1.41-2.19-.47-1.72,2.19-1.72,2.19a5,5,0,0,0-2.82,1.41c-.78,1.1-7.83,6.58-9.08,8.77a10.28,10.28,0,0,0-1.1,5s-13.46,11.43-18.16,17.54-8.3,10.17-8.14,12.52,7.2,18,9.86,23,8.93,15.34,8.93,15.34-7.05,10.8-7.68,17.69-1.25,18.17-1.87,21-1.73,5.33-.94,6.74,6.88,4.85,10.49,5.48,15-1.73,19.57-3,5.95-3.76,5.95-4.7-1.57-6.41-1.41-7.82,1.88-11.9,4.85-14.41,8.46-8.61,8.46-8.61,8.45,10.49,13.15,13.78,9.55,8.77,11.74,8.3,13-18,15.66-23.8,3.44-10,4.85-11.12,3.45-6.57,3.76-7.67-.94-10.8-.94-10.8L348.8,196l-1.25-.78s-1.1.15-1.73.31-1.25,8.61-1.25,8.61l-2.82,2.35-.31-5.48s-1.25-.94-1.72-.16,0,5.33-.63,6.89a10.5,10.5,0,0,0-.16,5.8,8.44,8.44,0,0,1,.63,2.34,14.46,14.46,0,0,1-3.13,6.27c-2.51,2.82-12.84,13.78-12.84,13.78s-7.52-12.22-9.39-15.19-1.73-6.58-5.8-8.93-9.86-2.35-9.86-2.35-6-2.66-8.93-3.6S281.16,203.78,281.16,203.78Z" style="opacity:0.1"></path><path d="M263.66,145.16s12.86,3.62,13.71,3.62c1,0-6.47,1.81-10.61,8.28s-9.57,15.52-11.64,18.11,2.85,3.88,6.47.52,10.86-21.48,13.71-23.29,7.5-3.36,10.87-5.69a23.14,23.14,0,0,0,7.76-10.09c1.55-3.88-5.69-10.09-5.69-10.09S275.82,144.9,263.66,145.16Z" style="opacity:0.2"></path><path d="M248.91,188.62s-2.33-11.9,1-7.24,7.77,19.15,11.39,23,4.4,1.81,4.4,1.81l-.78,11.9S251.5,201,248.91,188.62Z" style="opacity:0.2"></path><path d="M281,228.5s6.17.5,10.17-3.83S298.83,219,302,221.5s16.33,18.67,20.83,21.5,7.67-2.33,9.34-4.67,9.66-14.83,11.16-17.5a59.26,59.26,0,0,1,3.9-5.78s-4.4,16.12-8.56,22.45-8.5,13.33-11.34,14-12.5-3.33-16.66-8.67-8-10.66-10-9.83-4.34,4.17-7,4.17S283,235.83,281,228.5Z" style="opacity:0.2"></path></g><path d="M281.16,203.78s-3.45-1.72-8-4.39a70.1,70.1,0,0,1-7.38-4.91s-1.7-7-4.52-11.68-3.6-6.11-3.6-6.11,6.11-6.89,8.46-11.58,6.89-13.78,9.24-14.88,7-3.29,8.45-3.29,2-2.35,3.45-3.6,3.44-1.56,3.44-2.66-3-.16-3-.16,5.32-5.79,5.32-7.2-1.57-.94-1.57-.94,0-2.19-.78-2.35a5,5,0,0,0-1.88.16s-1.41-1.41-2.19-.47-1.72,2.19-1.72,2.19a5,5,0,0,0-2.82,1.41c-.78,1.1-7.83,6.58-9.08,8.77a10.28,10.28,0,0,0-1.1,5s-13.46,11.43-18.16,17.54-8.3,10.17-8.14,12.52,7.2,18,9.86,23,8.93,15.34,8.93,15.34-7.05,10.8-7.68,17.69-1.25,18.17-1.87,21-1.73,5.33-.94,6.74,6.88,4.85,10.49,5.48,15-1.73,19.57-3,5.95-3.76,5.95-4.7-1.57-6.41-1.41-7.82,1.88-11.9,4.85-14.41,8.46-8.61,8.46-8.61,8.45,10.49,13.15,13.78,9.55,8.77,11.74,8.3,13-18,15.66-23.8,3.44-10,4.85-11.12,3.45-6.57,3.76-7.67-.94-10.8-.94-10.8L348.8,196l-1.25-.78s-1.1.15-1.73.31-1.25,8.61-1.25,8.61l-2.82,2.35-.31-5.48s-1.25-.94-1.72-.16,0,5.33-.63,6.89a10.5,10.5,0,0,0-.16,5.8,8.44,8.44,0,0,1,.63,2.34,14.46,14.46,0,0,1-3.13,6.27c-2.51,2.82-12.84,13.78-12.84,13.78s-7.52-12.22-9.39-15.19-1.73-6.58-5.8-8.93-9.86-2.35-9.86-2.35-6-2.66-8.93-3.6S281.16,203.78,281.16,203.78Z" style="fill:none;stroke:#263238;stroke-linecap:round;stroke-linejoin:round"></path><path d="M283.56,220.35c4.06-5.65,11.58-9.64,14.63-11.09-1.29-.57-6-2.64-8.58-3.45-3-.94-8.45-2-8.45-2s-1.43-.72-3.66-1.94c-8,3.52-13.09,13.68-13.09,13.68s-7.05,10.8-7.68,17.69-1.25,18.17-1.87,21-1.73,5.33-.94,6.74,6.88,4.85,10.49,5.48,15-1.73,19.57-3,5.95-3.76,5.95-4.7-1.57-6.41-1.41-7.82,1.88-11.9,4.85-14.41c.39-.33.82-.72,1.28-1.14C286.65,236.19,278.6,227.24,283.56,220.35Z" style="fill:#FFF969"></path><g style="clip-path:url(#freepik--clip-path-5--inject-34)"><path d="M293.37,236.5c.39-.33.82-.72,1.28-1.14a12.18,12.18,0,0,1-11.84-7l-1.81.1s-14.3-2.35-10.43.38,8.63,5.33,10.36,11-13.84-4.33-9.95,1.29,11.25,6.92,12.12,12.55-3.9,8.65-13,9.95a72.9,72.9,0,0,1-12.12.27,23.66,23.66,0,0,0,6.41,2.51c3.6.62,15-1.73,19.57-3s5.95-3.76,5.95-4.7-1.57-6.41-1.41-7.82S290.4,239,293.37,236.5Z" style="opacity:0.2"></path></g><path d="M283.56,220.35c4.06-5.65,11.58-9.64,14.63-11.09-1.29-.57-6-2.64-8.58-3.45-3-.94-8.45-2-8.45-2s-1.43-.72-3.66-1.94c-8,3.52-13.09,13.68-13.09,13.68s-7.05,10.8-7.68,17.69-1.25,18.17-1.87,21-1.73,5.33-.94,6.74,6.88,4.85,10.49,5.48,15-1.73,19.57-3,5.95-3.76,5.95-4.7-1.57-6.41-1.41-7.82,1.88-11.9,4.85-14.41c.39-.33.82-.72,1.28-1.14C286.65,236.19,278.6,227.24,283.56,220.35Z" style="fill:none;stroke:#263238;stroke-linecap:round;stroke-linejoin:round"></path><line x1="264.41" y1="215.52" x2="265.56" y2="203.48" style="fill:none;stroke:#263238;stroke-linecap:round;stroke-linejoin:round"></line><path d="M350.05,196.58a2.68,2.68,0,0,0-1,2.4c0,1.8.23,6.53.23,6.53" style="fill:none;stroke:#263238;stroke-linecap:round;stroke-linejoin:round"></path><path d="M348.52,196a3.16,3.16,0,0,0-.81,1.76v7" style="fill:none;stroke:#263238;stroke-linecap:round;stroke-linejoin:round"></path><path d="M347.24,195.43a7.35,7.35,0,0,0-.89,2.44c-.06,1-.4,6.37-.4,6.37" style="fill:none;stroke:#263238;stroke-linecap:round;stroke-linejoin:round"></path><line x1="345.2" y1="204.24" x2="349.88" y2="206.07" style="fill:none;stroke:#263238;stroke-linecap:round;stroke-linejoin:round"></line><path d="M343.58,215.35a6.71,6.71,0,0,1,.13-2.51,16.07,16.07,0,0,1,2.64-3.18" style="fill:none;stroke:#263238;stroke-linecap:round;stroke-linejoin:round"></path><path d="M287.74,140.52l-3.36,1.56s-5.55-1.2-7.34,2.1" style="fill:none;stroke:#263238;stroke-linecap:round;stroke-linejoin:round"></path><line x1="291.49" y1="132.38" x2="284.98" y2="139.38" style="fill:none;stroke:#263238;stroke-linecap:round;stroke-linejoin:round"></line><line x1="288.83" y1="130.19" x2="281.98" y2="138.33" style="fill:none;stroke:#263238;stroke-linecap:round;stroke-linejoin:round"></line><line x1="284.92" y1="131.91" x2="279.28" y2="137.88" style="fill:none;stroke:#263238;stroke-linecap:round;stroke-linejoin:round"></line><line x1="278.68" y1="137.88" x2="286.33" y2="139.83" style="fill:none;stroke:#263238;stroke-linecap:round;stroke-linejoin:round"></line><line x1="301.83" y1="227.89" x2="297.28" y2="225.52" style="fill:none;stroke:#263238;stroke-linecap:round;stroke-linejoin:round"></line><line x1="298.85" y1="225.07" x2="295.25" y2="226.42" style="fill:none;stroke:#263238;stroke-linecap:round;stroke-linejoin:round"></line><line x1="274.25" y1="321.2" x2="270.06" y2="289.63" style="fill:none;stroke:#263238;stroke-linecap:round;stroke-linejoin:round"></line><line x1="269.84" y1="292.1" x2="261.52" y2="285.13" style="fill:none;stroke:#263238;stroke-linecap:round;stroke-linejoin:round"></line><line x1="270.29" y1="293.68" x2="264.22" y2="291.88" style="fill:none;stroke:#263238;stroke-linecap:round;stroke-linejoin:round"></line><path d="M265.16,249.39l-2.1-.25c-3.58-.42-5.59-4.09-4.48-8.06l1-3.55a2.58,2.58,0,0,1,2.66-1.95,1.9,1.9,0,0,1,1.43,2.51l-.93,3.53a2,2,0,0,0,1.54,2.73l2.06.26a2.66,2.66,0,0,0,2.71-2.16l1.73-7.33a1.6,1.6,0,0,0-1.21-2.06l-6-.9a1.84,1.84,0,0,1-1.4-2.43l2.16-7.76a2.22,2.22,0,0,1,2.42-1.63L276,222a1.8,1.8,0,0,1,1.38,2.24,2.05,2.05,0,0,1-2.26,1.65l-7.47-1.25-1,3.65,3.92.63c3,.47,4.78,3.49,4.05,6.81L273,243C272.18,246.87,268.65,249.79,265.16,249.39Z" style="fill:#263238"></path><path d="M298.28,193.66s5.17-4,5.17-9.61-5.74-11.77-11.19-11.91a12.32,12.32,0,0,0-9.9,4.3c-1.15,1.44-1.86,2.15-1.86,2.87s.28,1.72-.15,2.15-2.44,1.44-2.72,3-.58,2.87-.72,3.73-1.87,6.74-1.72,8.32,4.44,3.87,4.44,3.87a4.09,4.09,0,0,1,.58,3.73c-.72,2.15-3.44,4.88-2,5.59s11.33-.71,13.49-1,.86-1.58.86-3.44S290.39,198.25,298.28,193.66Z" style="fill:#fff"></path><g style="clip-path:url(#freepik--clip-path-6--inject-34)"><path d="M298.28,193.66s5.17-4,5.17-9.61-5.74-11.77-11.19-11.91a12.32,12.32,0,0,0-9.9,4.3c-1.15,1.44-1.86,2.15-1.86,2.87s.28,1.72-.15,2.15-2.44,1.44-2.72,3-.58,2.87-.72,3.73-1.87,6.74-1.72,8.32,4.44,3.87,4.44,3.87a4.09,4.09,0,0,1,.58,3.73c-.72,2.15-3.44,4.88-2,5.59s11.33-.71,13.49-1,.86-1.58.86-3.44S290.39,198.25,298.28,193.66Z" style="opacity:0.1"></path><path d="M300.5,174.33s2.33,6.17.5,9.5-6,3.5-8.67,5.84-6.16,6.5-9.5,7-8.5-1-7.66,1,5,2.5,4.83,4.16-6.17,8-3.67,8.67,15.84.17,17.17-1.67.17-8.16,1.17-9.66,10.66-8.5,10.33-13.84S303.33,176.33,300.5,174.33Z" style="opacity:0.2"></path></g><path d="M298.28,193.66s5.17-4,5.17-9.61-5.74-11.77-11.19-11.91a12.32,12.32,0,0,0-9.9,4.3c-1.15,1.44-1.86,2.15-1.86,2.87s.28,1.72-.15,2.15-2.44,1.44-2.72,3-.58,2.87-.72,3.73-1.87,6.74-1.72,8.32,4.44,3.87,4.44,3.87a4.09,4.09,0,0,1,.58,3.73c-.72,2.15-3.44,4.88-2,5.59s11.33-.71,13.49-1,.86-1.58.86-3.44S290.39,198.25,298.28,193.66Z" style="fill:none;stroke:#263238;stroke-linecap:round;stroke-linejoin:round"></path><path d="M295.09,189.48s3.44-2.44,3.73.14a4.63,4.63,0,0,1-3,4.88c-1.57.57-2.29-1.44-2.29-1.44" style="fill:none;stroke:#263238;stroke-linecap:round;stroke-linejoin:round"></path><path d="M280.64,186.2l-.86-.58s-.58-1.72.72-2.43a15,15,0,0,0,2.86-2.44c.29-.43-1.43-2.3-1.86-1.72" style="fill:none;stroke:#263238;stroke-linecap:round;stroke-linejoin:round"></path><path d="M281.21,185.62a3.86,3.86,0,0,0,1.58.72.87.87,0,0,0,1-.72" style="fill:none;stroke:#263238;stroke-linecap:round;stroke-linejoin:round"></path><path d="M280.21,188.06s1.15.86,4.73-.14" style="fill:none;stroke:#263238;stroke-linecap:round;stroke-linejoin:round"></path><path d="M288.36,180.76c-.18.61-.57,1-.87.94s-.41-.65-.23-1.26.57-1,.88-.94S288.54,180.16,288.36,180.76Z" style="fill:#263238"></path><path d="M282.07,180.89c-.17.61-.57,1-.87.94s-.41-.65-.23-1.26.57-1,.88-.94S282.25,180.28,282.07,180.89Z" style="fill:#263238"></path><path d="M285.8,179.17s3-2.3,5.6.29" style="fill:none;stroke:#263238;stroke-linecap:round;stroke-linejoin:round"></path><path d="M277.77,198.54s6.17,1.29,8.32.57a14.2,14.2,0,0,0,3-1.29" style="fill:none;stroke:#263238;stroke-linecap:round;stroke-linejoin:round"></path></g><g id="freepik--Ball--inject-34"><circle cx="271.31" cy="130.03" r="16.29" style="fill:#FFF969"></circle><g style="clip-path:url(#freepik--clip-path-7--inject-34)"><path d="M280.27,116.44a16.06,16.06,0,0,1,1.14,5.94A16.28,16.28,0,0,1,256.16,136a16.28,16.28,0,1,0,24.11-19.54Z" style="opacity:0.2"></path></g><circle cx="271.31" cy="130.03" r="16.29" style="fill:none;stroke:#263238;stroke-linecap:round;stroke-linejoin:round"></circle><path d="M284.47,139.61a18.31,18.31,0,0,0,.35-3.57,18.53,18.53,0,0,0-25.35-17.21" style="fill:none;stroke:#263238;stroke-linecap:round;stroke-linejoin:round"></path><path d="M258.43,139.89c8.71,5,20.5.81,26.34-9.35a24.79,24.79,0,0,0,2.2-5.08" style="fill:none;stroke:#263238;stroke-linecap:round;stroke-linejoin:round"></path><path d="M255.32,132.09c3.22,1.74,6.94,1.69,11.14,1.49,3.43-.15,15.37-3.11,16.35,2.68.56,3.23-3.66,7.12-7.94,9.59" style="fill:none;stroke:#263238;stroke-linecap:round;stroke-linejoin:round"></path><path d="M271.31,113.74a11.26,11.26,0,0,1,9.17,5.49c2.06,3.19,3.81,9.13,6.79,13.12" style="fill:none;stroke:#263238;stroke-linecap:round;stroke-linejoin:round"></path></g><g id="freepik--character-1--inject-34"><path d="M220.81,233.06a18.68,18.68,0,0,0-9.4-4.2c-2.08-.35-2.45-2-4.32-2.2-6-.8-12.41.8-15.78,8s.4,14.93,6.73,17.05c3.75,1.26,12.16,1.86,12.16,1.86Z" style="fill:#fff;stroke:#263238;stroke-linecap:round;stroke-linejoin:round"></path><path d="M207.68,238.37c-2.38-2.38,2.37-2.72,1.69-3.74s-3.73-1-5.77-1c-1.45,0-1.18-1.2-.3-2.86l.3-.2a8.77,8.77,0,0,0,1-1.94l.07-.1a1.13,1.13,0,0,0,.2-.7,12.11,12.11,0,0,0,.48-3.38c0-3.74-9.18-3.06-9.52-1l-.34,2s-4.41,2.38-5.09,5.44c-.54,2.43,1.28,2.07,2.05,1.82a15.56,15.56,0,0,0-1.09,1.94c-3.36,7.19.4,14.93,6.73,17.05,3.75,1.26,12.16,1.86,12.16,1.86l4.72-9.13C213.43,242.42,209.7,240.39,207.68,238.37Z" style="fill:#263238;stroke:#263238;stroke-linecap:round;stroke-linejoin:round"></path><path d="M207.61,236.52s-1.55-1.33-2.84,1.07,5.17,3.19,7.24,2.93-.52-2.93-.52-2.93" style="fill:#fff;stroke:#263238;stroke-linecap:round;stroke-linejoin:round"></path><path d="M206.11,364.69l-2.44,5.7s-8.86,3.88-13.07,12.32-11.07,17.1-14.61,21.21-4.43,5.24-4.21,8.89,4.65,4.79,8.2,9.58c1,1.41,2.43,5.24,7.75,8.44,3,1.79,4.2.45,4-3.65s-4.43-10.27-5.09-14.83-1.77-5.24,0-6.84S205,388.63,210.76,382s8.41-15.74,8.41-15.74S210.76,367,206.11,364.69Z" style="fill:#fff"></path><g style="clip-path:url(#freepik--clip-path-8--inject-34)"><path d="M206.11,364.69l-2.44,5.7s-8.86,3.88-13.07,12.32-11.07,17.1-14.61,21.21-4.43,5.24-4.21,8.89,4.65,4.79,8.2,9.58c1,1.41,2.43,5.24,7.75,8.44,3,1.79,4.2.45,4-3.65s-4.43-10.27-5.09-14.83-1.77-5.24,0-6.84S205,388.63,210.76,382s8.41-15.74,8.41-15.74S210.76,367,206.11,364.69Z" style="opacity:0.1"></path></g><path d="M206.11,364.69l-2.44,5.7s-8.86,3.88-13.07,12.32-11.07,17.1-14.61,21.21-4.43,5.24-4.21,8.89,4.65,4.79,8.2,9.58c1,1.41,2.43,5.24,7.75,8.44,3,1.79,4.2.45,4-3.65s-4.43-10.27-5.09-14.83-1.77-5.24,0-6.84S205,388.63,210.76,382s8.41-15.74,8.41-15.74S210.76,367,206.11,364.69Z" style="fill:none;stroke:#263238;stroke-linecap:round;stroke-linejoin:round"></path><path d="M210.76,367.65,208.1,374a109.72,109.72,0,0,0-13.95,8.67c-6,4.56-13.51,15.5-16.39,18.24s-8.39,5.07-8.39,5.07-7.53,1.37-8.19,4.56-.67,13.46.44,16.65,8.42,11.4,10.63,11.4,2.66-1.82,2.66-3.42-1.11-7.75-1.11-10.26,1.33-11.63,1.33-11.63,17.69-11,25-16.47S219,387,221.61,384.3s6.64-16.65,6.64-16.65,2.21-7.75,2-9.12-10.85-3-14.39-2.28S210.76,367.65,210.76,367.65Z" style="fill:#fff"></path><g style="clip-path:url(#freepik--clip-path-9--inject-34)"><path d="M206.73,388.08c-4.19,4.89-32.84,22.36-40.18,25.86-4.05,1.93-4.8,9.51-3.3,16.15,2.59,3.7,7.3,8.54,9,8.54,2.21,0,2.66-1.82,2.66-3.42s-1.11-7.75-1.11-10.26,1.33-11.63,1.33-11.63,17.69-11,25-16.47S219,387,221.61,384.3s6.64-16.65,6.64-16.65,2.21-7.75,2-9.12c0-.21-.32-.43-.8-.65l-4.19.15S210.93,383.19,206.73,388.08Z" style="fill:#FFF969"></path><path d="M206.73,388.08c-4.19,4.89-32.84,22.36-40.18,25.86-4.05,1.93-4.8,9.51-3.3,16.15,2.59,3.7,7.3,8.54,9,8.54,2.21,0,2.66-1.82,2.66-3.42s-1.11-7.75-1.11-10.26,1.33-11.63,1.33-11.63,17.69-11,25-16.47S219,387,221.61,384.3s6.64-16.65,6.64-16.65,2.21-7.75,2-9.12c0-.21-.32-.43-.8-.65l-4.19.15S210.93,383.19,206.73,388.08Z" style="fill:#fff;opacity:0.5"></path></g><path d="M210.76,367.65,208.1,374a109.72,109.72,0,0,0-13.95,8.67c-6,4.56-13.51,15.5-16.39,18.24s-8.39,5.07-8.39,5.07-7.53,1.37-8.19,4.56-.67,13.46.44,16.65,8.42,11.4,10.63,11.4,2.66-1.82,2.66-3.42-1.11-7.75-1.11-10.26,1.33-11.63,1.33-11.63,17.69-11,25-16.47S219,387,221.61,384.3s6.64-16.65,6.64-16.65,2.21-7.75,2-9.12-10.85-3-14.39-2.28S210.76,367.65,210.76,367.65Z" style="fill:none;stroke:#263238;stroke-linecap:round;stroke-linejoin:round"></path><path d="M215.85,356.25c-3.54.68-5.09,11.4-5.09,11.4L208.1,374s-2.23,1.15-5.22,2.9c-.84,2.48-1.2,5.74,1,8.5,1.81,2.25,4.92,3.66,7.88,4.54,4.48-2.3,8.42-4.22,9.84-5.68,2.65-2.73,6.64-16.65,6.64-16.65s2.21-7.75,2-9.12S219.39,355.57,215.85,356.25Z" style="fill:#263238;stroke:#263238;stroke-linecap:round;stroke-linejoin:round"></path><path d="M214.74,303.8s-5.09,10.26-6.2,15.05.22,13.23,1.33,16.19.66,5.47-.22,9.35-7.53,20.07-7.53,20.07,6.64,5.47,10,6.39,6.86,1.59,6.86,1.59l5.54-6.38-1.55,7.29s8,1.6,9.08,1.6h3.32c4.61-21.33,11.32-41.58,7.75-63.63-.45-2.73-.67-4.33-.67-4.33s-8.19,2.05-13.73.45S214.74,303.8,214.74,303.8Z" style="fill:#FFF969"></path><g style="clip-path:url(#freepik--clip-path-10--inject-34)"><path d="M228.69,307.44c-1.54-.44-3.31-.92-5.07-1.38-1.07,3.21-3.06,10-2.23,14.61,1.1,6.16,2,19.16-.45,25.55-1.78,4.67-7.6,17.42-10.59,23.91a9.49,9.49,0,0,0,1.74.72c3.32.91,6.86,1.59,6.86,1.59l5.54-6.38-1.55,7.29s5.76,1.16,8.16,1.5c1-5.67,2.54-14.34,2.69-15,.22-.91,0,2.05.88-3.65s.45-25.77.45-31.93c0-5.18,2.19-13.91,2.89-16.55A24.87,24.87,0,0,1,228.69,307.44Z" style="fill:#fff;stroke:#263238;stroke-linecap:round;stroke-linejoin:round"></path><path d="M216,305.5s5.5,7.5,9.5,10S216,312,221,318s12,31,12,39-8.25-5-8-2-5.1,12-11,15.5l-3,4.5,24.5,5s3.5-21,6.5-28.5,5.5-35,4-39-3.58-5.51-3.58-5.51S224.5,307.5,216,305.5Z" style="opacity:0.2"></path></g><path d="M214.74,303.8s-5.09,10.26-6.2,15.05.22,13.23,1.33,16.19.66,5.47-.22,9.35-7.53,20.07-7.53,20.07,6.64,5.47,10,6.39,6.86,1.59,6.86,1.59l5.54-6.38-1.55,7.29s8,1.6,9.08,1.6h3.32c4.61-21.33,11.32-41.58,7.75-63.63-.45-2.73-.67-4.33-.67-4.33s-8.19,2.05-13.73.45S214.74,303.8,214.74,303.8Z" style="fill:none;stroke:#263238;stroke-linecap:round;stroke-linejoin:round"></path><path d="M238.66,265.2a81.28,81.28,0,0,1,8.73,5.57s2.09-5.57,3.44-10,3.22-11,3.22-11-2.08-3.53-3.53-4.39-2.71-3.75-3.44-4.93,1.25-1.39,1.25-1.39-1.77-3.75-2.18-5.14.62-2.25,1.14-1.61a26.58,26.58,0,0,1,1.56,3,16.77,16.77,0,0,0,2.29,2.68s-1.35-3.11-1.66-4.07-1-2.68-.42-2.68,1.56,1,2.08,1.93,2.81,4.5,2.81,4.5l-1.77-4.29s-.1-1.39.73-1.07,2.29,4.39,2.29,4.39-.52-3.74.2-3.64.42,2,.84,3.11,1,4.82,1.66,6.32a11.45,11.45,0,0,1,.62,4.6c-.1.75-.31,3.54-.31,3.54s-.21,17.14-.83,21.64-3.22,9.64-4.16,11.46a3.64,3.64,0,0,1-3.95,1.82c-1-.21-6-2.25-6-2.25a24.94,24.94,0,0,0-3-10.6c-2.91-5.15-4.16-8.68-3.54-8.47A19.34,19.34,0,0,1,238.66,265.2Z" style="fill:#fff"></path><g style="clip-path:url(#freepik--clip-path-11--inject-34)"><path d="M238.66,265.2a81.28,81.28,0,0,1,8.73,5.57s2.09-5.57,3.44-10,3.22-11,3.22-11-2.08-3.53-3.53-4.39-2.71-3.75-3.44-4.93,1.25-1.39,1.25-1.39-1.77-3.75-2.18-5.14.62-2.25,1.14-1.61a26.58,26.58,0,0,1,1.56,3,16.77,16.77,0,0,0,2.29,2.68s-1.35-3.11-1.66-4.07-1-2.68-.42-2.68,1.56,1,2.08,1.93,2.81,4.5,2.81,4.5l-1.77-4.29s-.1-1.39.73-1.07,2.29,4.39,2.29,4.39-.52-3.74.2-3.64.42,2,.84,3.11,1,4.82,1.66,6.32a11.45,11.45,0,0,1,.62,4.6c-.1.75-.31,3.54-.31,3.54s-.21,17.14-.83,21.64-3.22,9.64-4.16,11.46a3.64,3.64,0,0,1-3.95,1.82c-1-.21-6-2.25-6-2.25a24.94,24.94,0,0,0-3-10.6c-2.91-5.15-4.16-8.68-3.54-8.47A19.34,19.34,0,0,1,238.66,265.2Z" style="fill:#FFF969"></path><path d="M238.66,265.2a81.28,81.28,0,0,1,8.73,5.57s2.09-5.57,3.44-10,3.22-11,3.22-11-2.08-3.53-3.53-4.39-2.71-3.75-3.44-4.93,1.25-1.39,1.25-1.39-1.77-3.75-2.18-5.14.62-2.25,1.14-1.61a26.58,26.58,0,0,1,1.56,3,16.77,16.77,0,0,0,2.29,2.68s-1.35-3.11-1.66-4.07-1-2.68-.42-2.68,1.56,1,2.08,1.93,2.81,4.5,2.81,4.5l-1.77-4.29s-.1-1.39.73-1.07,2.29,4.39,2.29,4.39-.52-3.74.2-3.64.42,2,.84,3.11,1,4.82,1.66,6.32a11.45,11.45,0,0,1,.62,4.6c-.1.75-.31,3.54-.31,3.54s-.21,17.14-.83,21.64-3.22,9.64-4.16,11.46a3.64,3.64,0,0,1-3.95,1.82c-1-.21-6-2.25-6-2.25a24.94,24.94,0,0,0-3-10.6c-2.91-5.15-4.16-8.68-3.54-8.47A19.34,19.34,0,0,1,238.66,265.2Z" style="fill:#fff;opacity:0.5"></path></g><path d="M238.66,265.2a81.28,81.28,0,0,1,8.73,5.57s2.09-5.57,3.44-10,3.22-11,3.22-11-2.08-3.53-3.53-4.39-2.71-3.75-3.44-4.93,1.25-1.39,1.25-1.39-1.77-3.75-2.18-5.14.62-2.25,1.14-1.61a26.58,26.58,0,0,1,1.56,3,16.77,16.77,0,0,0,2.29,2.68s-1.35-3.11-1.66-4.07-1-2.68-.42-2.68,1.56,1,2.08,1.93,2.81,4.5,2.81,4.5l-1.77-4.29s-.1-1.39.73-1.07,2.29,4.39,2.29,4.39-.52-3.74.2-3.64.42,2,.84,3.11,1,4.82,1.66,6.32a11.45,11.45,0,0,1,.62,4.6c-.1.75-.31,3.54-.31,3.54s-.21,17.14-.83,21.64-3.22,9.64-4.16,11.46a3.64,3.64,0,0,1-3.95,1.82c-1-.21-6-2.25-6-2.25a24.94,24.94,0,0,0-3-10.6c-2.91-5.15-4.16-8.68-3.54-8.47A19.34,19.34,0,0,1,238.66,265.2Z" style="fill:none;stroke:#263238;stroke-linecap:round;stroke-linejoin:round"></path><path d="M248.33,239.06l2.39,3.21s3.54.54,5,3" style="fill:#fff;stroke:#263238;stroke-linecap:round;stroke-linejoin:round"></path><line x1="249.68" y1="238.31" x2="255.4" y2="238.2" style="fill:#fff;stroke:#263238;stroke-linecap:round;stroke-linejoin:round"></line><path d="M234.89,183.84s-10.4,22.8-11.73,27.14-.89,7.29-1.11,9.8-7.31,17.56-8,18.93-8.86,11.4-10,18.7-.44,11.86.45,13.69,7.75,11.17,9.08,14.14S215,294.45,215,297s-3.1,7.53-1.55,9.13,9.3,5,15.06,5.93,10.85,1.36,12.85-.69a20.51,20.51,0,0,0,4.42-9.12c.45-2.74.67-16.88-.22-23.72s-8.85-18-10-20.3-9.08-12.31-9.08-12.31,7.31-18.93,8-25.09,4.65-36,4.65-36A4.71,4.71,0,0,0,234.89,183.84Z" style="fill:#fff"></path><g style="clip-path:url(#freepik--clip-path-12--inject-34)"><path d="M226.48,245.87s7.31-18.93,8-25.09c.49-4.5,2.74-21.66,3.93-30.57-1.47,8.61-5.15,28.52-8.93,36.09-4.9,9.79-10.49,22.36-10.49,26.56s-2.12,4.54-5.94,7-3.49,8,1.4,12.23c4.65,4,14.66-9.39,18.64-17.63C230.34,250.73,226.48,245.87,226.48,245.87Z" style="fill:#FFF969"></path><path d="M226.48,245.87s7.31-18.93,8-25.09c.49-4.5,2.74-21.66,3.93-30.57-1.47,8.61-5.15,28.52-8.93,36.09-4.9,9.79-10.49,22.36-10.49,26.56s-2.12,4.54-5.94,7-3.49,8,1.4,12.23c4.65,4,14.66-9.39,18.64-17.63C230.34,250.73,226.48,245.87,226.48,245.87Z" style="fill:#fff;opacity:0.5"></path></g><path d="M234.89,183.84s-10.4,22.8-11.73,27.14-.89,7.29-1.11,9.8-7.31,17.56-8,18.93-8.86,11.4-10,18.7-.44,11.86.45,13.69,7.75,11.17,9.08,14.14S215,294.45,215,297s-3.1,7.53-1.55,9.13,9.3,5,15.06,5.93,10.85,1.36,12.85-.69a20.51,20.51,0,0,0,4.42-9.12c.45-2.74.67-16.88-.22-23.72s-8.85-18-10-20.3-9.08-12.31-9.08-12.31,7.31-18.93,8-25.09,4.65-36,4.65-36A4.71,4.71,0,0,0,234.89,183.84Z" style="fill:none;stroke:#263238;stroke-linecap:round;stroke-linejoin:round"></path><path d="M221.61,267.76c-3.55,4.11-10.19-.68-12.4-5.47-1.74-3.75-1.44-10.56-1.22-13.35-1.81,3.1-3.43,6.51-3.88,9.47-1.1,7.3-.44,11.86.45,13.69s7.75,11.17,9.08,14.14S215,294.45,215,297s-3.1,7.53-1.55,9.13,9.3,5,15.06,5.93,10.85,1.36,12.85-.69a20.51,20.51,0,0,0,4.42-9.12c.45-2.74.67-16.88-.22-23.72s-8.85-18-10-20.3-9.08-12.31-9.08-12.31V250C226.48,252.48,225.15,263.66,221.61,267.76Z" style="fill:#FFF969"></path><g style="clip-path:url(#freepik--clip-path-13--inject-34)"><path d="M228.91,281.67c-1.1-3.87-2.65-11.86-3.32-16.19-.27-1.75-.53-3.5-.76-5-.76,2.88-1.82,5.62-3.22,7.25-2.16,2.51-5.47,1.69-8.23-.4.92,5.41,2.51,13.3,4.46,16.59,3.1,5.25,7.75,13.69,7.31,16.2-.33,1.87-2.26,7-3.22,10.12a40,40,0,0,0,6.54,1.74,46,46,0,0,0,8.35.75,60.52,60.52,0,0,0,.51-9C237.11,297.41,230,285.55,228.91,281.67Z" style="fill:#fff;stroke:#263238;stroke-linecap:round;stroke-linejoin:round"></path><path d="M209.21,262.29A71.29,71.29,0,0,0,218.5,274c5.5,5.5,16.5,9.5,12,11s-16.5-6-11.5,2,21,14.5,16,18.5-13,2.5-19,0-8.5-5-8.5-2.5,24,18,29,18.5,12.5.5,14.5-2,4-40-4.5-57-7.18.4-7.84,2.7S224.5,251,221,249.5,208.91,250.08,209.21,262.29Z" style="opacity:0.2"></path></g><path d="M221.61,267.76c-3.55,4.11-10.19-.68-12.4-5.47-1.74-3.75-1.44-10.56-1.22-13.35-1.81,3.1-3.43,6.51-3.88,9.47-1.1,7.3-.44,11.86.45,13.69s7.75,11.17,9.08,14.14S215,294.45,215,297s-3.1,7.53-1.55,9.13,9.3,5,15.06,5.93,10.85,1.36,12.85-.69a20.51,20.51,0,0,0,4.42-9.12c.45-2.74.67-16.88-.22-23.72s-8.85-18-10-20.3-9.08-12.31-9.08-12.31V250C226.48,252.48,225.15,263.66,221.61,267.76Z" style="fill:none;stroke:#263238;stroke-linecap:round;stroke-linejoin:round"></path><path d="M185.08,407.37c-4.27-2.07-4.75-6.52-4.46-9.69a38.28,38.28,0,0,1-2.86,3.27c-2.88,2.74-8.39,5.07-8.39,5.07s-7.53,1.37-8.19,4.56-.67,13.46.44,16.65,8.42,11.4,10.63,11.4,2.66-1.82,2.66-3.42-1.11-7.75-1.11-10.26,1.33-11.63,1.33-11.63S176.92,412.93,185.08,407.37Z" style="fill:#fff;stroke:#263238;stroke-linecap:round;stroke-linejoin:round"></path><path d="M161.18,410.58c-.67,3.19-.67,13.46.44,16.65s8.42,11.4,10.63,11.4,2.66-1.82,2.66-3.42-1.11-7.75-1.11-10.26c0-2.22,1-9.62,1.28-11.29a11.39,11.39,0,0,0-2.61-.34c-2,0-2.21,2.74-3.54.23s.44-7.53.44-7.53S161.84,407.39,161.18,410.58Z" style="fill:#fff;stroke:#263238;stroke-linecap:round;stroke-linejoin:round"></path><path d="M234.78,184.22l-.65-6.19s.43.22,0-.56-7.44-12.05-7.44-12.05a.53.53,0,0,1,.55-.79c.87,0,3.39,3,3.39,3s-.77-2.59.11-1.91a36.87,36.87,0,0,1,3.28,3.82s-.44-2,0-1.91,2.62,5.07,2.62,5.07,3.5,5.51,3.72,6a3.68,3.68,0,0,1,.22,1.58c0,.56-1.53,5.86-1.53,5.86A4.39,4.39,0,0,0,234.78,184.22Z" style="fill:#fff;stroke:#263238;stroke-linecap:round;stroke-linejoin:round"></path><path d="M234.13,178A15.19,15.19,0,0,0,233,174c-.65-1-3.5-4.17-1.64-4.28s2.85,3.71,3.5,4.73,4.27,2.25,4.37,4.27a15.16,15.16,0,0,0,.33,2.82" style="fill:#fff;stroke:#263238;stroke-linecap:round;stroke-linejoin:round"></path><line x1="230.63" y1="167.67" x2="232.16" y2="169.81" style="fill:#fff;stroke:#263238;stroke-linecap:round;stroke-linejoin:round"></line><line x1="234.02" y1="169.58" x2="235.22" y2="171.95" style="fill:#fff;stroke:#263238;stroke-linecap:round;stroke-linejoin:round"></line><path d="M234.89,183.84s-8.55,18.75-11.14,25.48c3.12-.23,7.89.13,11.67,3.55,1.4-11,3.68-28.12,3.68-28.12A4.71,4.71,0,0,0,234.89,183.84Z" style="fill:#FFF969;stroke:#263238;stroke-linecap:round;stroke-linejoin:round"></path></g><g id="freepik--Basket--inject-34"><path d="M206.25,104.49c14,0,25.46,4.68,26.77,10.67a5.45,5.45,0,0,0,.12-1.14c0-6.52-12-11.8-26.89-11.8s-26.9,5.28-26.9,11.8a5.46,5.46,0,0,0,.13,1.14C180.78,109.17,192.27,104.49,206.25,104.49Z" style="fill:#FFF969;stroke:#263238;stroke-linecap:round;stroke-linejoin:round"></path><path d="M206.25,125.83c-14,0-25.47-4.68-26.77-10.67a5.36,5.36,0,0,0-.13,1.13c0,6.53,12,11.81,26.9,11.81s26.89-5.28,26.89-11.81a5.35,5.35,0,0,0-.12-1.13C231.71,121.15,220.23,125.83,206.25,125.83Z" style="fill:#FFF969;stroke:#263238;stroke-linecap:round;stroke-linejoin:round"></path><path d="M179.35,116.29s-.06,6.3,4.08,15.85,7.64,21.64,7.64,24.82a21.58,21.58,0,0,1-.64,5.41l5.73-1.59,5.73,2.86,5.72-3.5,4.14,2.23,5.73-3.18,5.09,4.14,4.46-4.14s-3.82-10.5-1.28-17.19,4.66-16.77,7.27-26.84" style="fill:none;stroke:#263238;stroke-linecap:round;stroke-linejoin:round"></path><path d="M227,159.19s-6.69-8.59-11.46-12.73a103.64,103.64,0,0,1-10.18-9.87c-.64-1-11.14-13-13-15.91s-6.68-12.41-6.68-12.41,11.45,39.46,4.77,54.1" style="fill:none;stroke:#263238;stroke-linecap:round;stroke-linejoin:round"></path><path d="M191.07,155.37l5.09,5.41a31.63,31.63,0,0,0,2.23-11.46V127.68c0-5.09,1.59-23.86,1.59-23.86s11.45,22.91,13.68,28,4.77,7.32,6.68,9.55,4.46,5.73,4.46,5.73" style="fill:none;stroke:#263238;stroke-linecap:round;stroke-linejoin:round"></path><path d="M201.89,163.64s1.9-13.36,3.5-18.77,2.22-9.55,5.41-19.1a168.72,168.72,0,0,0,5.09-20s6.68,18.77,7.64,22.91a43.42,43.42,0,0,0,3.5,8.91" style="fill:none;stroke:#263238;stroke-linecap:round;stroke-linejoin:round"></path><path d="M228,109.23s-5.41,13-8,21-6.68,16.87-8.59,21.32-3.82,8.59-3.82,8.59a29.34,29.34,0,0,0-8.91-7.63,40.67,40.67,0,0,1-11.14-9.87" style="fill:none;stroke:#263238;stroke-linecap:round;stroke-linejoin:round"></path><path d="M229.89,128.32S220,144.87,218.75,150a42.39,42.39,0,0,0-1.27,9.23s-15-11.78-20.69-15.59-13.36-11.46-13.36-11.46" style="fill:none;stroke:#263238;stroke-linecap:round;stroke-linejoin:round"></path><path d="M179.48,115.16s6.49,14.43,8.08,17.93a31,31,0,0,0,4.46,6.69" style="fill:none;stroke:#263238;stroke-linecap:round;stroke-linejoin:round"></path><polyline points="121.47 92.04 121.62 124.52 256.76 83.19" style="fill:none;stroke:#263238;stroke-linecap:round;stroke-linejoin:round"></polyline><polyline points="260.69 89.1 128.84 126.49 121.62 124.52 261.55 81.68" style="fill:#fff;stroke:#263238;stroke-linecap:round;stroke-linejoin:round"></polyline><line x1="136.41" y1="108.99" x2="136.41" y2="93.83" style="fill:none;stroke:#263238;stroke-linecap:round;stroke-linejoin:round"></line><polyline points="130.62 88.92 130.78 111.33 250.19 75.31" style="fill:none;stroke:#263238;stroke-linecap:round;stroke-linejoin:round"></polyline><polyline points="138.13 90.58 167.93 108.3 188.79 102.01 188.79 93.73 161.97 73.03" style="fill:#fff;stroke:#263238;stroke-linecap:round;stroke-linejoin:round"></polyline><line x1="188.79" y1="102.01" x2="149.88" y2="76.18" style="fill:none;stroke:#263238;stroke-linecap:round;stroke-linejoin:round"></line></g></svg>