<svg xmlns="http://www.w3.org/2000/svg" xmlns:xlink="http://www.w3.org/1999/xlink" viewBox="0 0 500 500"><defs><clipPath id="freepik--clip-path--inject-23"><path d="M182.62,324.43h-96V97.35h96ZM292.3,97.35h-96V324.43h96Zm109.69,0H306V324.43h96Z" style="fill:none;stroke:#263238;stroke-miterlimit:10"></path></clipPath></defs><g id="freepik--background-simple--inject-23"><path d="M255.74,401.82a150.48,150.48,0,0,0,40.51-.91,132.91,132.91,0,0,0,35.24-11.14c57.67-26.51,100.77-91,95.18-155.8-3.28-35.86-24.46-65.25-61.9-80.4-26.77-10.93-73.27,6.37-98.7-9.48C239.53,127.53,239.73,95.44,184.46,82c-35.16-8.72-73.11,22.28-88.21,51.64-18,36.57-15.79,77-5.37,121.26C107,324.82,182.33,393.77,255.74,401.82Z" style="fill:#FFF504"></path><g style="opacity:0.8"><path d="M255.74,401.82a150.48,150.48,0,0,0,40.51-.91,132.91,132.91,0,0,0,35.24-11.14c57.67-26.51,100.77-91,95.18-155.8-3.28-35.86-24.46-65.25-61.9-80.4-26.77-10.93-73.27,6.37-98.7-9.48C239.53,127.53,239.73,95.44,184.46,82c-35.16-8.72-73.11,22.28-88.21,51.64-18,36.57-15.79,77-5.37,121.26C107,324.82,182.33,393.77,255.74,401.82Z" style="fill:#fff"></path></g></g><g id="freepik--Window--inject-23"><g style="clip-path:url(#freepik--clip-path--inject-23)"><path d="M297.14,140.61v1.46H298C297.72,141.59,297.45,141.1,297.14,140.61Z" style="fill:#fff"></path><g style="opacity:0.2"><path d="M212.56,141.94c-3.43-1.87-5-.31-6.23-1.87s3.42-5.61-5.92-9.65c0,0-.62-8.72-13.39-9s-9.34,8.71-12.76,10.89-4.36-1.24-7.79.94-1.87,6.54-4.67,7.16-6.54-2.8-10-.62-3.43,4.05-5,4.05-4.67-1.25-6.54,0-4,2.8-4,2.8h78.78S216,143.81,212.56,141.94Z" style="fill:#FFF504"></path></g><g style="opacity:0.2"><path d="M434.59,177.62c-3.43-1.87-5-.31-6.23-1.87s3.42-5.6-5.92-9.65c0,0-.62-8.72-13.39-9s-9.34,8.72-12.76,10.9-4.36-1.25-7.79.93-1.87,6.54-4.67,7.16-6.54-2.8-10-.62-3.43,4.05-5,4.05-4.67-1.25-6.54,0-4,2.8-4,2.8h78.78S438,179.49,434.59,177.62Z" style="fill:#FFF504"></path></g><g style="opacity:0.2"><path d="M229.88,177c-2.14-1.17-3.11-.2-3.89-1.17s2.14-3.5-3.69-6c0,0-.39-5.45-8.36-5.64s-5.83,5.44-8,6.8-2.72-.78-4.86.59-1.17,4.08-2.91,4.47-4.09-1.75-6.22-.39-2.14,2.52-3.11,2.52-2.92-.77-4.09,0-2.52,1.75-2.52,1.75h49.17S232,178.16,229.88,177Z" style="fill:#FFF504"></path></g><polyline points="36.86 332.51 36.86 249.24 86.31 249.24 86.31 149.37 119.61 149.37 119.61 171.29 138.26 171.29 138.26 235.84 183.54 235.84 183.54 200.52 204.85 200.52 204.85 220 220.53 220 227.56 220 228.12 227.32 246.52 227.32 246.52 198.09 261.17 198.09 261.17 106.75 297.13 106.75 297.13 142.06 323.77 142.06 323.77 97.58 353.07 97.58 353.07 206.61 383.71 206.61 383.71 246.8 405.1 246.8 405.1 334.3" style="opacity:0.1"></polyline><rect x="92.2" y="171" width="7.2" height="7.8" style="opacity:0.1"></rect><rect x="107.21" y="171" width="7.2" height="7.8" style="opacity:0.1"></rect><rect x="92.2" y="187.26" width="7.2" height="7.8" style="opacity:0.1"></rect><rect x="107.21" y="187.26" width="7.2" height="7.8" style="opacity:0.1"></rect><rect x="123.41" y="187.26" width="7.2" height="7.8" style="opacity:0.1"></rect><rect x="123.41" y="203.52" width="7.2" height="7.8" style="opacity:0.1"></rect><rect x="123.41" y="219.78" width="7.2" height="7.8" style="opacity:0.1"></rect><rect x="123.41" y="236.04" width="7.2" height="7.8" style="opacity:0.1"></rect><rect x="123.41" y="252.3" width="7.2" height="7.8" style="opacity:0.1"></rect><rect x="123.41" y="268.56" width="7.2" height="7.8" style="opacity:0.1"></rect><rect x="92.2" y="203.52" width="7.2" height="7.8" style="opacity:0.1"></rect><rect x="107.21" y="203.52" width="7.2" height="7.8" style="opacity:0.1"></rect><rect x="92.2" y="219.78" width="7.2" height="7.8" style="opacity:0.1"></rect><rect x="107.21" y="219.78" width="7.2" height="7.8" style="opacity:0.1"></rect><rect x="92.2" y="236.04" width="7.2" height="7.8" style="opacity:0.1"></rect><rect x="107.21" y="236.04" width="7.2" height="7.8" style="opacity:0.1"></rect><rect x="92.2" y="252.3" width="7.2" height="7.8" style="opacity:0.1"></rect><rect x="59.19" y="261.4" width="7.2" height="7.8" style="opacity:0.1"></rect><rect x="163.02" y="243.84" width="7.2" height="7.8" style="opacity:0.1"></rect><rect x="177.43" y="243.84" width="7.2" height="7.8" style="opacity:0.1"></rect><rect x="328.56" y="117.67" width="7.2" height="7.8" style="opacity:0.1"></rect><rect x="337.57" y="117.67" width="7.2" height="7.8" style="opacity:0.1"></rect><rect x="328.56" y="133.93" width="7.2" height="7.8" style="opacity:0.1"></rect><rect x="337.57" y="133.93" width="7.2" height="7.8" style="opacity:0.1"></rect><rect x="328.56" y="150.19" width="7.2" height="7.8" style="opacity:0.1"></rect><rect x="337.57" y="150.19" width="7.2" height="7.8" style="opacity:0.1"></rect><rect x="328.56" y="166.45" width="7.2" height="7.8" style="opacity:0.1"></rect><rect x="337.57" y="166.45" width="7.2" height="7.8" style="opacity:0.1"></rect><rect x="328.56" y="182.71" width="7.2" height="7.8" style="opacity:0.1"></rect><rect x="337.57" y="182.71" width="7.2" height="7.8" style="opacity:0.1"></rect><rect x="267.35" y="182.71" width="7.2" height="7.8" style="opacity:0.1"></rect><rect x="282.95" y="182.71" width="7.2" height="7.8" style="opacity:0.1"></rect><rect x="298.56" y="182.71" width="7.2" height="7.8" style="opacity:0.1"></rect><rect x="267.35" y="217.83" width="7.2" height="7.8" style="opacity:0.1"></rect><rect x="282.95" y="217.83" width="7.2" height="7.8" style="opacity:0.1"></rect><rect x="298.56" y="217.83" width="7.2" height="7.8" style="opacity:0.1"></rect><rect x="267.35" y="252.95" width="7.2" height="7.8" style="opacity:0.1"></rect><rect x="282.95" y="252.95" width="7.2" height="7.8" style="opacity:0.1"></rect><rect x="298.56" y="252.95" width="7.2" height="7.8" style="opacity:0.1"></rect><rect x="328.56" y="198.97" width="7.2" height="7.8" style="opacity:0.1"></rect><rect x="337.57" y="198.97" width="7.2" height="7.8" style="opacity:0.1"></rect><rect x="328.56" y="215.23" width="7.2" height="7.8" style="opacity:0.1"></rect><rect x="337.57" y="215.23" width="7.2" height="7.8" style="opacity:0.1"></rect><rect x="328.56" y="231.49" width="7.2" height="7.8" style="opacity:0.1"></rect><rect x="337.57" y="231.49" width="7.2" height="7.8" style="opacity:0.1"></rect><rect x="352.57" y="215.23" width="7.2" height="7.8" style="opacity:0.1"></rect><rect x="369.38" y="215.23" width="7.2" height="7.8" style="opacity:0.1"></rect><rect x="352.57" y="230.84" width="7.2" height="7.8" style="opacity:0.1"></rect><rect x="369.38" y="230.84" width="7.2" height="7.8" style="opacity:0.1"></rect><rect x="352.57" y="246.44" width="7.2" height="7.8" style="opacity:0.1"></rect><rect x="369.38" y="246.44" width="7.2" height="7.8" style="opacity:0.1"></rect><rect x="352.57" y="262.05" width="7.2" height="7.8" style="opacity:0.1"></rect><rect x="369.38" y="262.05" width="7.2" height="7.8" style="opacity:0.1"></rect><rect x="328.56" y="247.74" width="7.2" height="7.8" style="opacity:0.1"></rect><rect x="337.57" y="247.74" width="7.2" height="7.8" style="opacity:0.1"></rect><rect x="328.56" y="264" width="7.2" height="7.8" style="opacity:0.1"></rect><rect x="337.57" y="264" width="7.2" height="7.8" style="opacity:0.1"></rect><rect x="107.21" y="252.3" width="7.2" height="7.8" style="opacity:0.1"></rect><rect x="92.2" y="268.56" width="7.2" height="7.8" style="opacity:0.1"></rect><rect x="107.21" y="268.56" width="7.2" height="7.8" style="opacity:0.1"></rect><rect x="92.2" y="284.82" width="7.2" height="7.8" style="opacity:0.1"></rect><rect x="107.21" y="284.82" width="7.2" height="7.8" style="opacity:0.1"></rect><rect x="92.2" y="301.07" width="7.2" height="7.8" style="opacity:0.1"></rect><rect x="107.21" y="301.07" width="7.2" height="7.8" style="opacity:0.1"></rect></g><path d="M182.62,324.43h-96V97.35h96ZM292.3,97.35h-96V324.43h96Zm109.69,0H306V324.43h96Z" style="fill:none;stroke:#263238;stroke-miterlimit:10"></path></g><g id="freepik--Lamps--inject-23"><path d="M385.09,142.17c-1.9-6.19-9.44-9.26-14.79-11.58-2.51-1.08-3.23-3-3.41-5.68,0-.29,0-2,.06-3.67H356.31c.05,1.68.09,3.38.07,3.67-.19,2.65-.91,4.6-3.41,5.68-5.35,2.32-12.89,5.39-14.8,11.58a15.27,15.27,0,0,0-.67,4.81h48.26A14.71,14.71,0,0,0,385.09,142.17Z" style="fill:#263238"></path><rect x="360.91" y="69.92" width="1.44" height="52.3" style="fill:#263238"></rect><path d="M153.94,142.17c-1.9-6.19-9.44-9.26-14.79-11.58-2.51-1.08-3.23-3-3.41-5.68,0-.29,0-2,.06-3.67H125.16c0,1.68.09,3.38.07,3.67-.19,2.65-.91,4.6-3.41,5.68-5.35,2.32-12.89,5.39-14.8,11.58a15.27,15.27,0,0,0-.67,4.81h48.26A14.71,14.71,0,0,0,153.94,142.17Z" style="fill:#263238"></path><rect x="129.76" y="69.92" width="1.44" height="52.3" style="fill:#263238"></rect></g><g id="freepik--Plants--inject-23"><path d="M432.63,264s0-3.76-5.26-9-8.64-8.26-8.64-8.26-2.63,8.64,2.26,13.9a92.06,92.06,0,0,0,11.64,10.14Z" style="fill:#FFF504"></path><path d="M425,287.49s0-3.75-5.26-9-8.64-8.27-8.64-8.27-2.63,8.64,2.25,13.9A92.56,92.56,0,0,0,425,294.25Z" style="fill:#FFF504"></path><path d="M432.3,270.43s.4-3.74,6.18-8.41,9.47-7.31,9.47-7.31,1.7,8.87-3.71,13.59a92.4,92.4,0,0,1-12.65,8.85Z" style="fill:#FFF504"></path><path d="M423.08,298.14s.79-3.68,7-7.72,10.18-6.27,10.18-6.27.76,9-5.11,13.12a92.5,92.5,0,0,1-13.52,7.48Z" style="fill:#FFF504"></path><path d="M424.81,328.35s0-3.76,5.26-9,8.64-8.26,8.64-8.26,2.63,8.64-2.25,13.9a91.8,91.8,0,0,1-11.65,10.14Z" style="fill:#FFF504"></path><path d="M424.73,335.72s.53-3.72-3.93-9.67-7.38-9.41-7.38-9.41-3.83,8.18.26,14.08a92.8,92.8,0,0,0,10.09,11.7Z" style="fill:#FFF504"></path><path d="M419.54,357.58s0-3.76,5.26-9,8.64-8.26,8.64-8.26,2.63,8.64-2.25,13.9a92.56,92.56,0,0,1-11.65,10.14Z" style="fill:#FFF504"></path><path d="M423.05,377.39s-.95-3.63,2.81-10.05,6.26-10.19,6.26-10.19,4.73,7.7,1.34,14a91.61,91.61,0,0,1-8.7,12.76Z" style="fill:#FFF504"></path><path d="M433.11,263.07a109.26,109.26,0,0,1-1.44,11.66c-2.08,10.74-7.28,17.67-9.36,27.38s3.89,22.2,2.29,34.66-6.45,19.4-5.06,27.71,8.66,30.84,8.66,30.84" style="fill:none;stroke:#263238;stroke-linecap:round;stroke-linejoin:round"></path><line x1="432.25" y1="272.93" x2="437.92" y2="268.58" style="fill:none;stroke:#263238;stroke-linecap:round;stroke-linejoin:round"></line><line x1="432.51" y1="267.92" x2="430.14" y2="263.7" style="fill:none;stroke:#263238;stroke-linecap:round;stroke-linejoin:round"></line><path d="M422.63,301.66s4.74-3.56,9.62-7.12" style="fill:none;stroke:#263238;stroke-linecap:round;stroke-linejoin:round"></path><path d="M425,294.25a75.22,75.22,0,0,0-8.44-12.89" style="fill:none;stroke:#263238;stroke-linecap:round;stroke-linejoin:round"></path><path d="M425,333.69a58.56,58.56,0,0,1,10.15-13.57" style="fill:none;stroke:#263238;stroke-linecap:round;stroke-linejoin:round"></path><path d="M424.08,339a67.35,67.35,0,0,0-5.14-9.76c-2.77-4.08-3.17-4.61-3.17-4.61" style="fill:none;stroke:#263238;stroke-linecap:round;stroke-linejoin:round"></path><path d="M419.54,364.48a63.05,63.05,0,0,1,4.27-8.64,56.11,56.11,0,0,1,5.54-7.25" style="fill:none;stroke:#263238;stroke-linecap:round;stroke-linejoin:round"></path><path d="M424.76,383.93a16.11,16.11,0,0,1,1.43-8.32c2-3.82,4.21-8.83,5.14-10.81" style="fill:none;stroke:#263238;stroke-linecap:round;stroke-linejoin:round"></path><path d="M389.71,314.22s-.41-2.36,2.32-6.23,4.52-6.12,4.52-6.12,2.59,5.14.1,9a59.75,59.75,0,0,1-6.21,7.62Z" style="fill:#FFF504"></path><path d="M397,328.1s-.4-2.35,2.32-6.22,4.52-6.12,4.52-6.12,2.59,5.13.1,9a58.83,58.83,0,0,1-6.2,7.63Z" style="fill:#FFF504"></path><path d="M390.61,318.2s-.65-2.3-4.79-4.61-6.73-3.55-6.73-3.55-.1,5.75,3.8,8.12a60,60,0,0,0,8.9,4.18Z" style="fill:#FFF504"></path><path d="M399.4,334.57s-.89-2.22-5.24-4.07-7.07-2.83-7.07-2.83.5,5.73,4.63,7.67a58.36,58.36,0,0,0,9.29,3.22Z" style="fill:#FFF504"></path><path d="M401.6,353.7s-.41-2.35-4.28-5.08-6.32-4.24-6.32-4.24-.71,5.7,2.92,8.47a59.08,59.08,0,0,0,8.41,5.1Z" style="fill:#FFF504"></path><path d="M402.45,358.32s-.74-2.27,1.41-6.49,3.61-6.7,3.61-6.7,3.29,4.71,1.37,8.85a59,59,0,0,1-5.06,8.43Z" style="fill:#FFF504"></path><path d="M409.05,377.32s.28-2.37,4-5.32,6.07-4.59,6.07-4.59,1,5.65-2.44,8.62a59,59,0,0,1-8.1,5.57Z" style="fill:#FFF504"></path><path d="M408.08,371.46s-.41-2.35-4.28-5.08-6.32-4.25-6.32-4.25-.71,5.71,2.93,8.47a58.65,58.65,0,0,0,8.4,5.1Z" style="fill:#FFF504"></path><path d="M408,384.27s.21-2.39-2.85-6-5-5.71-5-5.71-2.13,5.34.68,8.94a59.21,59.21,0,0,0,6.84,7.06Z" style="fill:#FFF504"></path><path d="M389.31,313.67a67.43,67.43,0,0,0,2.17,7.16c2.47,6.51,6.48,10.29,8.84,16.15s0,14.34,2.32,22,6.15,11.46,6.19,16.83-2.09,20.28-2.09,20.28" style="fill:none;stroke:#263238;stroke-linecap:round;stroke-linejoin:round"></path><line x1="390.92" y1="319.76" x2="386.89" y2="317.64" style="fill:none;stroke:#263238;stroke-linecap:round;stroke-linejoin:round"></line><line x1="390.21" y1="316.64" x2="391.24" y2="313.74" style="fill:none;stroke:#263238;stroke-linecap:round;stroke-linejoin:round"></line><path d="M400.07,336.73s-3.36-1.71-6.81-3.42" style="fill:none;stroke:#263238;stroke-linecap:round;stroke-linejoin:round"></path><path d="M397.78,332.35a48.26,48.26,0,0,1,3.89-9" style="fill:none;stroke:#263238;stroke-linecap:round;stroke-linejoin:round"></path><path d="M402.06,357.08a37.33,37.33,0,0,0-7.84-7.42" style="fill:none;stroke:#263238;stroke-linecap:round;stroke-linejoin:round"></path><path d="M403.21,360.28a42.15,42.15,0,0,1,2.16-6.67c1.3-2.87,1.49-3.24,1.49-3.24" style="fill:none;stroke:#263238;stroke-linecap:round;stroke-linejoin:round"></path><path d="M408.64,379.86a35.12,35.12,0,0,1,4.33-4.49,23.47,23.47,0,0,0,2.81-2.45" style="fill:none;stroke:#263238;stroke-linecap:round;stroke-linejoin:round"></path><path d="M408.83,375.79a40.51,40.51,0,0,0-3.62-5,36.43,36.43,0,0,0-4.26-3.94" style="fill:none;stroke:#263238;stroke-linecap:round;stroke-linejoin:round"></path><path d="M407.66,388.56a10.28,10.28,0,0,0-1.79-5.07c-1.66-2.18-3.61-5.08-4.4-6.22" style="fill:none;stroke:#263238;stroke-linecap:round;stroke-linejoin:round"></path><path d="M400.93,393.47h34.41a0,0,0,0,1,0,0v10.86a3.5,3.5,0,0,1-3.5,3.5H404.43a3.5,3.5,0,0,1-3.5-3.5V393.47A0,0,0,0,1,400.93,393.47Z" style="fill:#fff;stroke:#263238;stroke-linecap:round;stroke-linejoin:round"></path><path d="M435,398H400.93a2.7,2.7,0,0,1-2.69-2.7h0a2.7,2.7,0,0,1,2.69-2.69H435a2.69,2.69,0,0,1,2.69,2.69h0A2.69,2.69,0,0,1,435,398Z" style="fill:#fff;stroke:#263238;stroke-linecap:round;stroke-linejoin:round"></path></g><g id="freepik--character-2--inject-23"><path d="M361.63,258.74s-10.45,33.64-12.71,34.77-46.92-9.9-46.92-9.9-3.67,3.11-5.93,4a16.5,16.5,0,0,0-4.24,2.54s-5.39,6.35-5.11,4.65,2.56-4.08,2.56-4.08-4.83,5.19-5.39,4.63,3.7-5.2,3.7-5.2-6.37,5.93-6.78,4.81c-.3-.81,3.84-5.51,3.84-5.51s-6.95,6.92-6.95,5.51,3.11-4.81,5.08-6.22,12.16-7.63,14.42-7.63,42.39,1.13,42.39,1.13l10.74-37.31" style="fill:#fff;stroke:#263238;stroke-linecap:round;stroke-linejoin:round"></path><path d="M297.06,285.37a4.93,4.93,0,0,1-2.33,2.9c-2,1.3-4.93.43-6.38,1.45s-3.19,2-3.77,1.88.73-2.32,1.6-2.9,5.65-4.64,5.65-4.64" style="fill:#fff;stroke:#263238;stroke-linecap:round;stroke-linejoin:round"></path><path d="M301.76,392.45s-4.78,1.61-7.13,2.58-9.74.53-10.53,1.7,2.41,1.91,6.9,4.09,8.29.76,9.2,1.1,3.26,1.91,6.66.23,1.29-8.22,1.29-8.22Z" style="fill:#263238;stroke:#263238;stroke-linecap:round;stroke-linejoin:round"></path><path d="M353.87,307.28s-36.78,4.37-39.28,6.38-13,79-13,79l6.39,1.47,18.84-59.26s22.1-5.74,33.64-4.8,15.07-1.65,17.42-8.24-.7-11.54-4.23-12.48" style="fill:#263238;stroke:#263238;stroke-linecap:round;stroke-linejoin:round"></path><path d="M351.37,301.93s-.5,18-.5,21.75,4.53,7.55,12.45,7.55,18.5-.76,21.89-4.15.76-26.42.76-26.42Z" style="fill:#263238;stroke:#263238;stroke-linecap:round;stroke-linejoin:round"></path><path d="M344.28,241.37s-2.58,10.63-1.29,18,5.8,21.58,5.48,25.13,1,16.1,2.9,17.39,33.17,0,33.17,0,2.9-1,2.26-5.8-4.19-24.8-7.09-40.91-21.58-26.41-21.58-26.41Z" style="fill:#FFF504;stroke:#263238;stroke-linecap:round;stroke-linejoin:round"></path><path d="M333,185.65s-4.83,0-7.09,3.87,2.26,6.44,2.26,6.44-2.58,8.37-2.58,10a15.65,15.65,0,0,0,1.29,4.51L325,217.86l3.22,1.29s1.28,7.73,3.54,8.37,7.09-1.61,7.09-1.61l6.12,10.63,13.2-7.73-4.19-10.31s6.77-14.17,5.48-22.87S342.35,182.75,333,185.65Z" style="fill:#fff;stroke:#263238;stroke-linecap:round;stroke-linejoin:round"></path><path d="M359.42,195.63c-1.29-8.69-17.07-12.88-26.41-10,0,0-4.83,0-7.09,3.87s2.26,6.44,2.26,6.44,10.63-2.9,10.63-.33-2.26,4.19-1.61,6.45,4.5,2.25,4.5,2.25l-.32,4.83,2.9,1.94s0-4.84,1.93-4.51,3.23,1,3.23,4.51-2.9,3.86-2.9,3.86,4.18,6.12,7.4,3.54C353.94,218.5,360.71,204.33,359.42,195.63Z" style="fill:#263238;stroke:#263238;stroke-linecap:round;stroke-linejoin:round"></path><polygon points="358.45 224.3 341.06 239.76 342.35 246.21 362 229.78 358.45 224.3" style="fill:#fff;stroke:#263238;stroke-linecap:round;stroke-linejoin:round"></polygon><path d="M289.49,288.7a79.6,79.6,0,0,1,11-6.42c4.83-1.93,45.41-2.92,45.41-2.92l1.72-7.32,12.79,5.78c-1.93,6.45-3.77,11.88-4.62,12.36-2.2,1.24-46.93-4-46.93-4s-3.26,1.61-5.48,2.57a13.46,13.46,0,0,1-4.78.94s-5.06,6.6-4.86,4.89,2.35-4.2,2.35-4.2-4.57,5.43-5.16,4.89,3.43-5.37,3.43-5.37-6.06,6.24-6.53,5.14c-.34-.8,3.57-5.69,3.57-5.69s-6.6,7.26-6.67,5.85S287.58,290.21,289.49,288.7Z" style="fill:#fff;stroke:#263238;stroke-linecap:round;stroke-linejoin:round"></path><path d="M355.56,242.66s-4.19,1.61-4.51,5.16-5.16,31.54-5.16,31.54l14.5,10.33L370.05,253" style="fill:#FFF504;stroke:#263238;stroke-linecap:round;stroke-linejoin:round"></path><path d="M344.28,279.38s12.56,12.24,14.17,12.24,1-.32,1.94-1.93,1.93-7.41,1.93-7.41l-15.46-8A10.88,10.88,0,0,0,344.28,279.38Z" style="fill:#fff;stroke:#263238;stroke-linecap:round;stroke-linejoin:round"></path><path d="M369,307.83a169.45,169.45,0,0,0-39.12-2.8c-19.41.87-25,4.78-24.28,8.18s17,69.43,17,69.43l6.79-.75-3.77-60s23.4,7.83,37.73,9.34,18,.14,21.89-4.15" style="fill:#263238;stroke:#263238;stroke-linecap:round;stroke-linejoin:round"></path><path d="M322.57,382.64s-3,2.68-4.53,4.33-11.23,7.26-12.05,8.25,1.81,2.32,4,2.32,15.52-3.47,18.82-4,3.64-1.65,3.8-3.14-3.21-8.54-3.21-8.54Z" style="fill:#263238;stroke:#263238;stroke-linecap:round;stroke-linejoin:round"></path><rect x="359.79" y="332.74" width="10.57" height="29.43" transform="translate(730.14 694.91) rotate(180)" style="fill:#263238"></rect><rect x="362.43" y="354.62" width="5.28" height="29.43" transform="translate(730.14 738.68) rotate(180)" style="fill:#263238"></rect><path d="M366.06,334.23c6.93,0,12.68-.05,14.24-.18,4.91-.41,7.1-2.06,7.34-2.25,3.27-2.9,3.39-9.27,3.69-24.64.08-4.16.17-8.88.34-14.37.74-24.33,9.62-48.66,9.71-48.9a1.7,1.7,0,1,0-3.19-1.17c-.09.24-9.16,25.07-9.91,50-.17,5.51-.26,10.23-.34,14.4-.26,13-.4,20.13-2.44,22.06a11.86,11.86,0,0,1-5.48,1.52c-4.4.36-45.47,0-45.88,0h0a1.7,1.7,0,0,0,0,3.4C335.22,334.07,352.81,334.23,366.06,334.23Z" style="fill:#263238"></path><path d="M367.22,381.79s4.44,5,15.85,6.8c6,.92,12.3,2.08,17.74,5,3.51,1.85,10.48,5.91,10.48,10.55a4.16,4.16,0,0,1-8.31,0,4.1,4.1,0,0,1,1.13-2.83,19.68,19.68,0,0,0-12.31-8.35c-8.68-1.89-15-1.12-27.22-9.24Z" style="fill:#263238"></path><path d="M363.44,381.79s-4.44,5-15.85,6.8c-6,.92-12.3,2.08-17.75,5-3.5,1.85-10.47,5.91-10.47,10.55a4.16,4.16,0,1,0,7.18-2.83,19.68,19.68,0,0,1,12.31-8.35c8.68-1.89,15-1.12,27.22-9.24Z" style="fill:#263238"></path><rect x="362.87" y="400.46" width="4.77" height="7.8" rx="0.66" transform="translate(730.51 808.71) rotate(180)" style="fill:#263238"></rect><rect x="364.12" y="382.5" width="2.26" height="25.75" transform="translate(730.51 790.75) rotate(180)" style="fill:#263238"></rect></g><g id="freepik--character-1--inject-23"><path d="M166.23,198.61a39.4,39.4,0,0,1-.27,5.07c-.27,1.07-2.14,2.67-1.6,4s1.6,5.08,1.6,5.08l-3.2.53s-3.74,6.94-6.14,7.74S143.54,216,143.54,216l-3.47,15.75L131.79,224s3.47-9.61,3.74-12,.53-19.48,2.94-24.55,7.47-8.81,16.28-7.74S169.7,188.73,166.23,198.61Z" style="fill:#fff;stroke:#263238;stroke-linecap:round;stroke-linejoin:round"></path><path d="M151.81,197.54l-6.67,31.23-21.89-13.61s11.48-20.56,13.88-27,7.48-11.48,16.28-10.41,13.89,8.54,15.22,12.54-1.07,9.35-1.07,9.35Z" style="fill:#263238;stroke:#263238;stroke-linecap:round;stroke-linejoin:round"></path><path d="M142.57,307.45s47.93-1.88,51.32,2.65,8.68,67.92,13.28,78.56c2.31,5.34,19.18-.07,17.67,2.94s-7.17,6.8-10.57,7.55-5.66,2.64-9.81,3.78-5.66-3.4-5.28-6a31.78,31.78,0,0,0-.36-7.17s-2.13-12.59-4.17-18.49c-12.64-36.61-10.19-47.55-10.19-47.55s-23,8.3-41.89,7.55" style="fill:#fff;stroke:#263238;stroke-linecap:round;stroke-linejoin:round"></path><path d="M224.84,391.6c.88-1.76-4.53-.64-9.63-.48l.95,3.13s-5.29,1.69-9.63,2.83a23.12,23.12,0,0,1-7.4.37c-.11,2.67,1.46,6.53,5.33,5.48,4.15-1.14,6.41-3,9.81-3.78S223.33,394.62,224.84,391.6Z" style="fill:#263238;stroke:#263238;stroke-linecap:round;stroke-linejoin:round"></path><path d="M122.12,258.74s10.46,33.64,12.72,34.77,46.91-9.9,46.91-9.9,3.68,3.11,5.94,4a16.5,16.5,0,0,1,4.24,2.54s5.38,6.35,5.1,4.65-2.56-4.08-2.56-4.08,4.83,5.19,5.4,4.63-3.7-5.2-3.7-5.2,6.37,5.93,6.78,4.81c.3-.81-3.85-5.51-3.85-5.51s7,6.92,7,5.51S203,290.11,201,288.7s-12.15-7.63-14.41-7.63-42.4,1.13-42.4,1.13l-10.73-37.31" style="fill:#fff;stroke:#263238;stroke-linecap:round;stroke-linejoin:round"></path><path d="M186.7,285.37a4.93,4.93,0,0,0,2.32,2.9c2,1.3,4.93.43,6.38,1.45s3.19,2,3.77,1.88-.72-2.32-1.59-2.9-5.66-4.64-5.66-4.64" style="fill:#fff;stroke:#263238;stroke-linecap:round;stroke-linejoin:round"></path><path d="M132.58,220.59s9.32,6.78,11,12.72,8.2,25.72,6.5,29.39-9.61,13.57-10.17,14.41,6.78,36.46,7.34,41-2,10.18-8.47,12.44-20.07,3.67-26-3.68-5.69-16.38,1.7-34.47c2.15-5.27,3.67-10.18,3.67-10.18s-3.11-26-1.41-36.74S132.58,220.59,132.58,220.59Z" style="fill:#FFF504;stroke:#263238;stroke-linecap:round;stroke-linejoin:round"></path><path d="M125.59,305.57s61.92-2,67.58,1.06-18.52,86.86-18.52,86.86,2.32,3.49,4.45,6.28a34.8,34.8,0,0,0,5.86,6c.66.4,2.53.67,1.86,1.6s-4.12.13-7.45-.13-6.52-1.73-7.06-2.67-3.59-4.65-4.79-5.19-3.19-2.13-2.26-3.86,3.86-4.39,4-5.32,4-24.58,4.42-29.76c2.2-30.32,4-37.8,4-37.8s-31,13.12-51,9.39" style="fill:#FFF504;stroke:#263238;stroke-linecap:round;stroke-linejoin:round"></path><path d="M193.17,306.63c-2.56-1.37-16.66-1.71-31.32-1.68l.27,23.07a158.68,158.68,0,0,0,15.51-5.39s-1.76,7.48-4,37.8c-.38,5.18-4.29,28.83-4.42,29.76s-3.06,3.59-4,5.32,1.06,3.33,2.26,3.86,4.26,4.26,4.79,5.19,3.73,2.4,7.06,2.67,6.79,1.06,7.45.13-1.2-1.2-1.86-1.6a34.8,34.8,0,0,1-5.86-6c-2.13-2.79-4.45-6.28-4.45-6.28S198.83,309.65,193.17,306.63Z" style="fill:#fff;stroke:#263238;stroke-linecap:round;stroke-linejoin:round"></path><path d="M185,405.76a22.25,22.25,0,0,1-2.74-2.46H175.4l-7.46-11.19a23.83,23.83,0,0,0-2.68,3.4c-.93,1.73,1.06,3.33,2.26,3.86s4.26,4.26,4.79,5.19,3.73,2.4,7.06,2.67,6.79,1.06,7.45.13S185.62,406.16,185,405.76Z" style="fill:#263238;stroke:#263238;stroke-linecap:round;stroke-linejoin:round"></path><path d="M123.45,255.12s14.3,32.19,16.68,33,45.44-15.29,45.44-15.29,4,2.66,6.36,3.24a16.55,16.55,0,0,1,4.51,2s6.08,5.68,5.61,4-3-3.75-3-3.75,5.4,4.59,5.9,4-4.28-4.73-4.28-4.73,7,5.15,7.29,4c.21-.84-4.46-5-4.46-5s7.72,6.06,7.55,4.66-3.65-4.41-5.78-5.58-13-6.17-15.2-5.9-42,6.06-42,6.06l-15-35.8" style="fill:#FFF504;stroke:#263238;stroke-linecap:round;stroke-linejoin:round"></path><path d="M205.25,275.69c-2.13-1.18-13-6.17-15.2-5.9s-42,6.06-42,6.06l-2.91-6.93-11.65,7.82c3,6.05,5.69,11.09,6.61,11.42,2.38.86,45.44-15.29,45.44-15.29s4,2.66,6.36,3.24a16.55,16.55,0,0,1,4.51,2s6.08,5.68,5.61,4-3-3.75-3-3.75,5.4,4.59,5.9,4-4.28-4.73-4.28-4.73,7,5.15,7.29,4c.21-.84-4.46-5-4.46-5s7.72,6.06,7.55,4.66S207.38,276.86,205.25,275.69Z" style="fill:#fff;stroke:#263238;stroke-linecap:round;stroke-linejoin:round"></path><rect x="127.86" y="332.74" width="10.57" height="29.43" style="fill:#263238"></rect><rect x="130.5" y="354.62" width="5.28" height="29.43" style="fill:#263238"></rect><path d="M132.15,334.23c-6.94,0-12.68-.05-14.25-.18-4.9-.41-7.1-2.06-7.33-2.25-3.27-2.9-3.39-9.27-3.69-24.64-.09-4.16-.18-8.88-.34-14.37-.74-24.33-9.62-48.66-9.71-48.9a1.69,1.69,0,0,1,1-2.18,1.72,1.72,0,0,1,2.19,1c.09.24,9.16,25.07,9.91,50,.17,5.51.26,10.23.34,14.4.25,13,.39,20.13,2.43,22.06a12,12,0,0,0,5.49,1.52c4.4.36,45.46,0,45.88,0h0a1.7,1.7,0,0,1,0,3.4C163,334.07,145.4,334.23,132.15,334.23Z" style="fill:#263238"></path><path d="M131,381.79s-4.44,5-15.85,6.8c-6,.92-12.3,2.08-17.75,5-3.5,1.85-10.47,5.91-10.47,10.55a4.16,4.16,0,1,0,7.18-2.83,19.68,19.68,0,0,1,12.31-8.35c8.68-1.89,15-1.12,27.22-9.24Z" style="fill:#263238"></path><path d="M134.77,381.79s4.43,5,15.85,6.8c6,.92,12.3,2.08,17.74,5,3.51,1.85,10.48,5.91,10.48,10.55a4.16,4.16,0,0,1-8.31,0,4.1,4.1,0,0,1,1.13-2.83,19.68,19.68,0,0,0-12.31-8.35c-8.68-1.89-15-1.12-27.23-9.24Z" style="fill:#263238"></path><rect x="130.56" y="400.46" width="4.77" height="7.8" rx="0.66" style="fill:#263238"></rect><rect x="131.82" y="382.5" width="2.26" height="25.75" style="fill:#263238"></rect></g><g id="freepik--Table--inject-23"><rect x="186.72" y="295.78" width="30.57" height="1.51" style="fill:#fff;stroke:#263238;stroke-linecap:round;stroke-linejoin:round"></rect><polygon points="231.15 228.97 234.85 234.88 229.76 278.87 225.79 278.41 231.15 228.97" style="fill:#263238;stroke:#263238;stroke-linecap:round;stroke-linejoin:round"></polygon><rect x="226.05" y="222.53" width="2.9" height="56.99" transform="translate(30.41 -24.52) rotate(6.61)" style="fill:#fff;stroke:#263238;stroke-linecap:round;stroke-linejoin:round"></rect><polygon points="231.22 266.25 229.57 295.29 220.13 295.29 220.13 297.54 229.57 297.54 231.75 297.54 231.75 295.29 233.38 266.5 231.22 266.25" style="fill:#fff;stroke:#263238;stroke-linecap:round;stroke-linejoin:round"></polygon><rect x="285.42" y="295.78" width="30.57" height="1.51" transform="translate(601.41 593.07) rotate(180)" style="fill:#fff;stroke:#263238;stroke-linecap:round;stroke-linejoin:round"></rect><polygon points="271.55 228.97 267.85 234.88 272.95 278.87 276.92 278.41 271.55 228.97" style="fill:#263238;stroke:#263238;stroke-linecap:round;stroke-linejoin:round"></polygon><rect x="273.75" y="222.53" width="2.9" height="56.99" transform="translate(577.48 468.7) rotate(173.39)" style="fill:#fff;stroke:#263238;stroke-linecap:round;stroke-linejoin:round"></rect><polygon points="271.49 266.25 273.14 295.29 282.57 295.29 282.57 297.54 273.14 297.54 270.96 297.54 270.96 295.29 269.33 266.5 271.49 266.25" style="fill:#fff;stroke:#263238;stroke-linecap:round;stroke-linejoin:round"></polygon><polyline points="190.58 299.06 249.76 394.83 319.46 299.06" style="fill:none;stroke:#263238;stroke-linecap:round;stroke-linejoin:round;stroke-width:3px"></polyline><rect x="182.19" y="297.27" width="145.66" height="3.02" style="fill:#fff;stroke:#263238;stroke-linecap:round;stroke-linejoin:round"></rect><rect x="242.12" y="244.73" width="15.24" height="158.95" style="fill:#263238;stroke:#263238;stroke-linecap:round;stroke-linejoin:round"></rect><rect x="206.29" y="318.5" width="3.97" height="26.19" style="fill:#fff;stroke:#263238;stroke-linecap:round;stroke-linejoin:round"></rect><rect x="206.29" y="348.21" width="3.97" height="26.19" style="fill:#fff;stroke:#263238;stroke-linecap:round;stroke-linejoin:round"></rect><rect x="206.29" y="377.93" width="3.97" height="26.19" style="fill:#fff;stroke:#263238;stroke-linecap:round;stroke-linejoin:round"></rect><rect x="208.61" y="314.62" width="83.02" height="93.21" style="fill:#263238;stroke:#263238;stroke-linecap:round;stroke-linejoin:round"></rect></g><g id="freepik--Floor--inject-23"><line x1="48.71" y1="407.83" x2="468" y2="407.83" style="fill:none;stroke:#263238;stroke-linecap:round;stroke-linejoin:round"></line></g></svg>