<svg xmlns="http://www.w3.org/2000/svg" viewBox="0 0 500 500"><g id="freepik--background-simple--inject-43"><path d="M453.07,388.14c.38-32.27-28.22-52.84-27.45-77.36.79-25.16,25.36-48.46,11.89-113.7S358.25,99.21,298,113.19s-46.76,51.27-103.82,50.33S92,162.59,57.89,241.81c-31.77,73.85-11.2,138-8.26,146.33Z" style="fill:#FFF504"></path><path d="M453.07,388.14c.38-32.27-28.22-52.84-27.45-77.36.79-25.16,25.36-48.46,11.89-113.7S358.25,99.21,298,113.19s-46.76,51.27-103.82,50.33S92,162.59,57.89,241.81c-31.77,73.85-11.2,138-8.26,146.33Z" style="fill:#fff;opacity:0.7000000000000001"></path></g><g id="freepik--Mountains--inject-43"><polygon points="446 387.44 318.7 126 271 212.56 210.09 172.7 157.24 230.2 132.13 205.97 61.45 366.03 46.35 387.44 446 387.44" style="fill:#FFF504"></polygon><polygon points="446 387.44 318.7 126 271 212.56 210.09 172.7 157.24 230.2 132.13 205.97 61.45 366.03 46.35 387.44 446 387.44" style="fill:#fff;opacity:0.5"></polygon><line x1="312.83" y1="242.67" x2="315.91" y2="245.03" style="fill:none;stroke:#fff;stroke-linecap:round;stroke-linejoin:round"></line><line x1="274.95" y1="213.74" x2="308.5" y2="239.36" style="fill:none;stroke:#fff;stroke-linecap:round;stroke-linejoin:round"></line><line x1="152.64" y1="237.63" x2="129.32" y2="263.23" style="fill:none;stroke:#fff;stroke-linecap:round;stroke-linejoin:round"></line><polygon points="328.79 185.52 328.79 158.47 332.09 159.79 332.36 154.05 318.7 126 301.42 157.37 310.98 149.24 312.96 158.47 318.24 154.52 328.79 185.52" style="fill:#fff"></polygon><polygon points="226.48 194.21 228.38 184.67 210.09 172.7 195.97 188.07 206.5 183.97 213.16 194.21 213.67 186.53 226.48 194.21" style="fill:#fff"></polygon></g><g id="freepik--house-2--inject-43"><rect x="259.95" y="271.67" width="167.37" height="115.33" style="fill:#FFF504;stroke:#263238;stroke-linecap:round;stroke-linejoin:round"></rect><rect x="338.47" y="331" width="23.35" height="56" style="fill:#fff;stroke:#263238;stroke-linecap:round;stroke-linejoin:round"></rect><rect x="340.97" y="335" width="18.35" height="52" style="fill:#263238;stroke:#263238;stroke-linecap:round;stroke-linejoin:round"></rect><rect x="370.99" y="323.43" width="4.96" height="63.57" style="fill:#fff;stroke:#263238;stroke-linecap:round;stroke-linejoin:round"></rect><rect x="370.12" y="364.68" width="6.7" height="22.32" style="fill:#fff;stroke:#263238;stroke-linecap:round;stroke-linejoin:round"></rect><path d="M432.44,273.16H276.92a.26.26,0,0,1-.1-.5l43.43-18.81a6.24,6.24,0,0,1,2.49-.52h59.94a6.18,6.18,0,0,1,2.32.45l47.54,18.87A.26.26,0,0,1,432.44,273.16Z" style="fill:#263238;stroke:#263238;stroke-linecap:round;stroke-linejoin:round"></path><polygon points="381.65 328.33 292.32 328.33 299 309 369.82 309 381.65 328.33" style="fill:#263238;stroke:#263238;stroke-linecap:round;stroke-linejoin:round"></polygon><rect x="254.06" y="271.67" width="76.51" height="115.33" style="fill:#fff;stroke:#263238;stroke-linecap:round;stroke-linejoin:round"></rect><rect x="254.06" y="367" width="76.51" height="20" style="fill:#FFF504;stroke:#263238;stroke-linecap:round;stroke-linejoin:round"></rect><path d="M291.2,252.47l-41.77,19a.26.26,0,0,0,.11.5H335.1a.26.26,0,0,0,.11-.5l-41.77-19A2.66,2.66,0,0,0,291.2,252.47Z" style="fill:#263238;stroke:#263238;stroke-linecap:round;stroke-linejoin:round"></path><circle cx="350.14" cy="343.5" r="2" style="fill:#fff"></circle><rect x="385.32" y="336" width="37" height="31" style="fill:#fff;stroke:#263238;stroke-linecap:round;stroke-linejoin:round"></rect><rect x="399.32" y="338.82" width="9" height="6.68" style="fill:#263238;stroke:#263238;stroke-linecap:round;stroke-linejoin:round"></rect><rect x="399.32" y="348.5" width="9" height="15.68" style="fill:#263238;stroke:#263238;stroke-linecap:round;stroke-linejoin:round"></rect><rect x="388.68" y="338.82" width="8.14" height="6.68" style="fill:#263238;stroke:#263238;stroke-linecap:round;stroke-linejoin:round"></rect><rect x="410.82" y="338.82" width="8.14" height="6.68" style="fill:#263238;stroke:#263238;stroke-linecap:round;stroke-linejoin:round"></rect><rect x="410.82" y="348.5" width="8.14" height="15.68" style="fill:#263238;stroke:#263238;stroke-linecap:round;stroke-linejoin:round"></rect><rect x="388.68" y="348.5" width="8.14" height="15.68" style="fill:#263238;stroke:#263238;stroke-linecap:round;stroke-linejoin:round"></rect><rect x="268.82" y="336" width="47" height="31" style="fill:#fff;stroke:#263238;stroke-linecap:round;stroke-linejoin:round"></rect><rect x="282.82" y="338.82" width="9" height="6.68" style="fill:#263238;stroke:#263238;stroke-linecap:round;stroke-linejoin:round"></rect><rect x="282.82" y="348.5" width="9" height="15.68" style="fill:#263238;stroke:#263238;stroke-linecap:round;stroke-linejoin:round"></rect><rect x="272.18" y="338.82" width="8.14" height="6.68" style="fill:#263238;stroke:#263238;stroke-linecap:round;stroke-linejoin:round"></rect><rect x="294.32" y="338.82" width="8.14" height="6.68" style="fill:#263238;stroke:#263238;stroke-linecap:round;stroke-linejoin:round"></rect><rect x="294.32" y="348.5" width="8.14" height="15.68" style="fill:#263238;stroke:#263238;stroke-linecap:round;stroke-linejoin:round"></rect><rect x="304.82" y="338.82" width="8.14" height="6.68" style="fill:#263238;stroke:#263238;stroke-linecap:round;stroke-linejoin:round"></rect><rect x="304.82" y="348.5" width="8.14" height="15.68" style="fill:#263238;stroke:#263238;stroke-linecap:round;stroke-linejoin:round"></rect><rect x="272.18" y="348.5" width="8.14" height="15.68" style="fill:#263238;stroke:#263238;stroke-linecap:round;stroke-linejoin:round"></rect><rect x="268.82" y="276.5" width="47" height="31" style="fill:#fff;stroke:#263238;stroke-linecap:round;stroke-linejoin:round"></rect><rect x="282.82" y="279.32" width="9" height="6.68" style="fill:#263238;stroke:#263238;stroke-linecap:round;stroke-linejoin:round"></rect><rect x="282.82" y="289" width="9" height="15.68" style="fill:#263238;stroke:#263238;stroke-linecap:round;stroke-linejoin:round"></rect><rect x="272.18" y="279.32" width="8.14" height="6.68" style="fill:#263238;stroke:#263238;stroke-linecap:round;stroke-linejoin:round"></rect><rect x="294.32" y="279.32" width="8.14" height="6.68" style="fill:#263238;stroke:#263238;stroke-linecap:round;stroke-linejoin:round"></rect><rect x="294.32" y="289" width="8.14" height="15.68" style="fill:#263238;stroke:#263238;stroke-linecap:round;stroke-linejoin:round"></rect><rect x="304.82" y="279.32" width="8.14" height="6.68" style="fill:#263238;stroke:#263238;stroke-linecap:round;stroke-linejoin:round"></rect><rect x="304.82" y="289" width="8.14" height="15.68" style="fill:#263238;stroke:#263238;stroke-linecap:round;stroke-linejoin:round"></rect><rect x="272.18" y="289" width="8.14" height="15.68" style="fill:#263238;stroke:#263238;stroke-linecap:round;stroke-linejoin:round"></rect><rect x="385.32" y="276.5" width="37" height="31" style="fill:#fff;stroke:#263238;stroke-linecap:round;stroke-linejoin:round"></rect><rect x="399.32" y="279.32" width="9" height="6.68" style="fill:#263238;stroke:#263238;stroke-linecap:round;stroke-linejoin:round"></rect><rect x="399.32" y="289" width="9" height="15.68" style="fill:#263238;stroke:#263238;stroke-linecap:round;stroke-linejoin:round"></rect><rect x="388.68" y="279.32" width="8.14" height="6.68" style="fill:#263238;stroke:#263238;stroke-linecap:round;stroke-linejoin:round"></rect><rect x="410.82" y="279.32" width="8.14" height="6.68" style="fill:#263238;stroke:#263238;stroke-linecap:round;stroke-linejoin:round"></rect><rect x="410.82" y="289" width="8.14" height="15.68" style="fill:#263238;stroke:#263238;stroke-linecap:round;stroke-linejoin:round"></rect><rect x="388.68" y="289" width="8.14" height="15.68" style="fill:#263238;stroke:#263238;stroke-linecap:round;stroke-linejoin:round"></rect><rect x="337.82" y="276.5" width="26" height="31" style="fill:#fff;stroke:#263238;stroke-linecap:round;stroke-linejoin:round"></rect><rect x="351.82" y="279.32" width="9" height="6.68" style="fill:#263238;stroke:#263238;stroke-linecap:round;stroke-linejoin:round"></rect><rect x="351.82" y="289" width="9" height="15.68" style="fill:#263238;stroke:#263238;stroke-linecap:round;stroke-linejoin:round"></rect><rect x="341.18" y="279.32" width="8.14" height="6.68" style="fill:#263238;stroke:#263238;stroke-linecap:round;stroke-linejoin:round"></rect><rect x="341.18" y="289" width="8.14" height="15.68" style="fill:#263238;stroke:#263238;stroke-linecap:round;stroke-linejoin:round"></rect><rect x="395.07" y="367" width="17.5" height="5" style="fill:#FFF504;stroke:#263238;stroke-linecap:round;stroke-linejoin:round"></rect><rect x="284.4" y="367" width="17.5" height="5" style="fill:#FFF504;stroke:#263238;stroke-linecap:round;stroke-linejoin:round"></rect></g><g id="freepik--house-1--inject-43"><rect x="77.95" y="287" width="135.61" height="100" style="fill:#fff;stroke:#263238;stroke-linecap:round;stroke-linejoin:round"></rect><polygon points="224.98 289.82 66.53 289.82 78.37 294.13 213.13 294.13 224.98 289.82" style="fill:#FFF504;stroke:#263238;stroke-linecap:round;stroke-linejoin:round"></polygon><path d="M225,289.83H66.52l10.83-15.56a3.43,3.43,0,0,1,2.81-1.47H211.34a3.44,3.44,0,0,1,2.82,1.47Z" style="fill:#263238;stroke:#263238;stroke-linecap:round;stroke-linejoin:round"></path><rect x="80.23" y="260.54" width="11.26" height="15.09" style="fill:#fff;stroke:#263238;stroke-linecap:round;stroke-linejoin:round"></rect><rect x="88.53" y="260.54" width="2.96" height="15.09" style="fill:#fff;stroke:#263238;stroke-linecap:round;stroke-linejoin:round"></rect><rect x="78.37" y="255.79" width="14.98" height="7.76" style="fill:#fff;stroke:#263238;stroke-linecap:round;stroke-linejoin:round"></rect><rect x="88.17" y="255.79" width="5.18" height="7.76" style="fill:#fff;stroke:#263238;stroke-linecap:round;stroke-linejoin:round"></rect><rect x="94.32" y="294.71" width="18.5" height="28.79" style="fill:#fff;stroke:#263238;stroke-linecap:round;stroke-linejoin:round"></rect><rect x="96.32" y="296.5" width="14.5" height="25.57" style="fill:#263238;stroke:#fff;stroke-linecap:round;stroke-linejoin:round"></rect><rect x="96.32" y="296.5" width="14.5" height="14" style="fill:#263238;stroke:#fff;stroke-linecap:round;stroke-linejoin:round"></rect><rect x="100.32" y="296.5" width="6.5" height="14" style="fill:#263238;stroke:#fff;stroke-linecap:round;stroke-linejoin:round"></rect><rect x="91.32" y="350.21" width="24.5" height="28.79" style="fill:#fff;stroke:#263238;stroke-linecap:round;stroke-linejoin:round"></rect><rect x="93.97" y="352" width="19.2" height="25.57" style="fill:#263238;stroke:#fff;stroke-linecap:round;stroke-linejoin:round"></rect><rect x="93.97" y="352" width="19.2" height="14" style="fill:#263238;stroke:#fff;stroke-linecap:round;stroke-linejoin:round"></rect><rect x="99.27" y="352" width="8.61" height="14" style="fill:#263238;stroke:#fff;stroke-linecap:round;stroke-linejoin:round"></rect><rect x="175.32" y="350.21" width="24.5" height="28.79" style="fill:#fff;stroke:#263238;stroke-linecap:round;stroke-linejoin:round"></rect><rect x="177.97" y="352" width="19.2" height="25.57" style="fill:#263238;stroke:#fff;stroke-linecap:round;stroke-linejoin:round"></rect><rect x="177.97" y="352" width="19.2" height="14" style="fill:#263238;stroke:#fff;stroke-linecap:round;stroke-linejoin:round"></rect><rect x="183.27" y="352" width="8.61" height="14" style="fill:#263238;stroke:#fff;stroke-linecap:round;stroke-linejoin:round"></rect><rect x="179.32" y="294.71" width="18.5" height="28.79" style="fill:#fff;stroke:#263238;stroke-linecap:round;stroke-linejoin:round"></rect><rect x="181.32" y="296.5" width="14.5" height="25.57" style="fill:#263238;stroke:#fff;stroke-linecap:round;stroke-linejoin:round"></rect><rect x="181.32" y="296.5" width="14.5" height="14" style="fill:#263238;stroke:#fff;stroke-linecap:round;stroke-linejoin:round"></rect><rect x="185.32" y="296.5" width="6.5" height="14" style="fill:#263238;stroke:#fff;stroke-linecap:round;stroke-linejoin:round"></rect><rect x="138.33" y="299" width="12.99" height="20.21" style="fill:#fff;stroke:#263238;stroke-linecap:round;stroke-linejoin:round"></rect><rect x="139.73" y="300.26" width="10.17" height="17.52" style="fill:#263238;stroke:#fff;stroke-linecap:round;stroke-linejoin:round"></rect><rect x="139.73" y="300.26" width="10.17" height="9.82" style="fill:#263238;stroke:#fff;stroke-linecap:round;stroke-linejoin:round"></rect><rect x="142.54" y="300.26" width="4.56" height="9.82" style="fill:#263238;stroke:#fff;stroke-linecap:round;stroke-linejoin:round"></rect><rect x="128.18" y="342" width="35.14" height="35.5" style="fill:#FFF504;stroke:#263238;stroke-linecap:round;stroke-linejoin:round"></rect><rect x="132.18" y="347" width="27.14" height="30.5" style="fill:#263238;stroke:#263238;stroke-linecap:round;stroke-linejoin:round"></rect><rect x="137.18" y="347" width="3.64" height="30.5" style="fill:#fff;stroke:#263238;stroke-linecap:round;stroke-linejoin:round"></rect><rect x="149.18" y="347" width="3.64" height="30.5" style="fill:#fff;stroke:#263238;stroke-linecap:round;stroke-linejoin:round"></rect><path d="M133.82,340.16H129.6l16.15-14,16.16,14h-4.09v2.33H170L146.33,322a.88.88,0,0,0-1.16,0l-23.66,20.49h12.31Z" style="fill:#FFF504;stroke:#263238;stroke-linecap:round;stroke-linejoin:round"></path><rect x="128.18" y="377.5" width="35.31" height="3.11" style="fill:#FFF504;stroke:#263238;stroke-linecap:round;stroke-linejoin:round"></rect><rect x="128.18" y="380.52" width="35.31" height="3.11" style="fill:#FFF504;stroke:#263238;stroke-linecap:round;stroke-linejoin:round"></rect><rect x="128.18" y="383.54" width="35.31" height="3.11" style="fill:#FFF504;stroke:#263238;stroke-linecap:round;stroke-linejoin:round"></rect><line x1="132.18" y1="347" x2="128.65" y2="347" style="fill:none;stroke:#263238;stroke-linecap:round;stroke-linejoin:round"></line><line x1="163.18" y1="347" x2="159.65" y2="347" style="fill:none;stroke:#263238;stroke-linecap:round;stroke-linejoin:round"></line></g><g id="freepik--Trees--inject-43"><path d="M251.32,368.35s9.41.93,14.18,6.76a18.21,18.21,0,0,1,14.09-6.62,18.29,18.29,0,1,0-28.28-.13Z" style="fill:#FFF504"></path><path d="M251.32,368.35s9.41.93,14.18,6.76a18.21,18.21,0,0,1,14.09-6.62,18.29,18.29,0,1,0-28.28-.13Z" style="fill:#fff;opacity:0.5"></path><polygon points="265.19 339.81 264.87 387 266.46 387 265.19 339.81" style="fill:#263238"></polygon><path d="M265.66,373.34s3.18-5.72,8.9-7.47c0,0-6,1.43-9.05,6.35Z" style="fill:#263238"></path><path d="M265.66,357.13s3.18-5.72,8.9-7.47c0,0-6,1.43-9.05,6.36Z" style="fill:#263238"></path><path d="M265.66,365.23s3.18-5.72,8.9-7.46c0,0-6,1.43-9.05,6.35Z" style="fill:#263238"></path><path d="M265.19,361.26s-3.06-5.72-8.58-7.47c0,0,5.82,1.43,8.74,6.36Z" style="fill:#263238"></path><path d="M265.19,369.2s-3.06-5.71-8.58-7.46c0,0,5.82,1.43,8.74,6.35Z" style="fill:#263238"></path><path d="M425.62,368.35s9.41.93,14.19,6.76a18.21,18.21,0,0,1,14.09-6.62,18.29,18.29,0,1,0-28.28-.13Z" style="fill:#FFF504"></path><path d="M425.62,368.35s9.41.93,14.19,6.76a18.21,18.21,0,0,1,14.09-6.62,18.29,18.29,0,1,0-28.28-.13Z" style="fill:#fff;opacity:0.5"></path><polygon points="439.49 339.81 439.18 387 440.76 387 439.49 339.81" style="fill:#263238"></polygon><path d="M440,373.34s3.18-5.72,8.9-7.47c0,0-6,1.43-9.06,6.35Z" style="fill:#263238"></path><path d="M440,357.13s3.18-5.72,8.9-7.47c0,0-6,1.43-9.06,6.36Z" style="fill:#263238"></path><path d="M440,365.23s3.18-5.72,8.9-7.46c0,0-6,1.43-9.06,6.35Z" style="fill:#263238"></path><path d="M439.5,361.26s-3.07-5.72-8.59-7.47c0,0,5.83,1.43,8.74,6.36Z" style="fill:#263238"></path><path d="M439.5,369.2s-3.07-5.71-8.59-7.46c0,0,5.83,1.43,8.74,6.35Z" style="fill:#263238"></path><path d="M47.62,368.35s9.41.93,14.19,6.76a18.21,18.21,0,0,1,14.09-6.62,18.29,18.29,0,1,0-28.28-.13Z" style="fill:#FFF504"></path><path d="M47.62,368.35s9.41.93,14.19,6.76a18.21,18.21,0,0,1,14.09-6.62,18.29,18.29,0,1,0-28.28-.13Z" style="fill:#fff;opacity:0.5"></path><polygon points="61.49 339.81 61.18 387 62.77 387 61.49 339.81" style="fill:#263238"></polygon><path d="M62,373.34s3.18-5.72,8.9-7.47c0,0-6,1.43-9.06,6.35Z" style="fill:#263238"></path><path d="M62,357.13s3.18-5.72,8.9-7.47c0,0-6,1.43-9.06,6.36Z" style="fill:#263238"></path><path d="M62,365.23s3.18-5.72,8.9-7.46c0,0-6,1.43-9.06,6.35Z" style="fill:#263238"></path><path d="M61.5,361.26s-3.07-5.72-8.59-7.47c0,0,5.83,1.43,8.74,6.36Z" style="fill:#263238"></path><path d="M61.5,369.2s-3.07-5.71-8.59-7.46c0,0,5.83,1.43,8.74,6.35Z" style="fill:#263238"></path><path d="M200.75,354.42s16.44,1.63,24.77,11.82c0,0,8.8-11.8,24.62-11.56a32,32,0,1,0-49.4-.23Z" style="fill:#FFF504"></path><path d="M200.75,354.42s16.44,1.63,24.77,11.82c0,0,8.8-11.8,24.62-11.56a32,32,0,1,0-49.4-.23Z" style="fill:#fff;opacity:0.30000000000000004"></path><polygon points="224.98 304.59 224.42 387 227.2 387 224.98 304.59" style="fill:#263238"></polygon><path d="M225.81,363.14s5.55-10,15.54-13.05c0,0-10.55,2.5-15.82,11.1Z" style="fill:#263238"></path><path d="M225.81,334.83s5.55-10,15.54-13c0,0-10.55,2.5-15.82,11.1Z" style="fill:#263238"></path><path d="M225.81,349s5.55-10,15.54-13c0,0-10.55,2.5-15.82,11.1Z" style="fill:#263238"></path><path d="M225,342.05s-5.36-10-15-13c0,0,10.18,2.49,15.26,11.09Z" style="fill:#263238"></path><path d="M225,355.92s-5.36-10-15-13c0,0,10.18,2.5,15.26,11.1Z" style="fill:#263238"></path></g><g id="freepik--Floor--inject-43"><rect x="45.65" y="386.33" width="407.33" height="4" style="fill:#263238;stroke:#263238;stroke-linecap:round;stroke-linejoin:round"></rect></g><g id="freepik--Clouds--inject-43"><path d="M238.91,240.19c-3.3-1.81-4.8-.3-6-1.81s3.31-5.41-5.71-9.31c0,0-.6-8.42-12.92-8.72s-9,8.42-12.32,10.52-4.21-1.2-7.51.9-1.81,6.31-4.51,6.91-6.31-2.7-9.62-.6S177,242,175.5,242s-4.5-1.2-6.31,0-3.9,2.7-3.9,2.7h76S242.22,242,238.91,240.19Z" style="fill:#fff"></path><path d="M207.1,228.46c-2.4-1.32-3.5-.22-4.37-1.32s2.4-3.94-4.16-6.78c0,0-.44-6.13-9.42-6.35s-6.56,6.13-9,7.66-3.07-.87-5.48.66-1.31,4.6-3.28,5-4.6-2-7-.43-2.4,2.84-3.5,2.84-3.28-.87-4.6,0-2.84,2-2.84,2h55.39S209.51,229.77,207.1,228.46Z" style="fill:#fff"></path><path d="M226.1,133.4c-4.5-2.45-6.55-.41-8.18-2.45s4.5-7.37-7.78-12.69c0,0-.82-11.46-17.6-11.87s-12.27,11.46-16.78,14.33-5.72-1.64-10.23,1.22-2.45,8.6-6.13,9.42-8.6-3.69-13.1-.82-4.5,5.32-6.55,5.32-6.14-1.64-8.59,0-5.32,3.68-5.32,3.68H229.37S230.6,135.86,226.1,133.4Z" style="fill:#FFF504"></path><path d="M226.1,133.4c-4.5-2.45-6.55-.41-8.18-2.45s4.5-7.37-7.78-12.69c0,0-.82-11.46-17.6-11.87s-12.27,11.46-16.78,14.33-5.72-1.64-10.23,1.22-2.45,8.6-6.13,9.42-8.6-3.69-13.1-.82-4.5,5.32-6.55,5.32-6.14-1.64-8.59,0-5.32,3.68-5.32,3.68H229.37S230.6,135.86,226.1,133.4Z" style="fill:#fff;opacity:0.8"></path></g></svg>