<svg xmlns="http://www.w3.org/2000/svg" viewBox="0 0 500 500"><g id="freepik--background-simple--inject-112"><path d="M463.13,136.08c-1.56-35.34-23.37-75.69-56.63-91.47-45.13-21.41-95,7.41-141.09-7.45C228.87,25.37,183.37,7.16,144,17c-30,7.51-48,32.7-56.1,61.26-4.1,14.5-5.92,29.61-6.44,44.63-.46,13.51,2.55,27.59-2,40.68-9.26,26.48-32.16,45.62-45,70.24-13.75,26.42-22.62,58.76-7.57,86.61C48.36,360.16,107,367,118.12,414.11,134.85,485.27,210.8,506.63,276,488c28.62-8.18,52.36-24.79,70.48-48.27,13.16-17.06,27.8-36.07,49.27-43.86,13-4.7,26.93-7,39.46-12.94C479.38,362,494.25,302,486,257c-3.8-20.7-12.92-39.94-18.95-60C461.1,177.23,464,156.38,463.13,136.08Z" style="fill:#20E78F"></path><path d="M463.13,136.08c-1.56-35.34-23.37-75.69-56.63-91.47-45.13-21.41-95,7.41-141.09-7.45C228.87,25.37,183.37,7.16,144,17c-30,7.51-48,32.7-56.1,61.26-4.1,14.5-5.92,29.61-6.44,44.63-.46,13.51,2.55,27.59-2,40.68-9.26,26.48-32.16,45.62-45,70.24-13.75,26.42-22.62,58.76-7.57,86.61C48.36,360.16,107,367,118.12,414.11,134.85,485.27,210.8,506.63,276,488c28.62-8.18,52.36-24.79,70.48-48.27,13.16-17.06,27.8-36.07,49.27-43.86,13-4.7,26.93-7,39.46-12.94C479.38,362,494.25,302,486,257c-3.8-20.7-12.92-39.94-18.95-60C461.1,177.23,464,156.38,463.13,136.08Z" style="fill:#fff;opacity:0.7000000000000001"></path><path d="M486,257c-3.8-20.7-12.92-39.94-18.95-60a84.49,84.49,0,0,1-2.91-14.33c-17.23-1.2-48-3-77.73-3-44.59,0-84.3,5.68-135.37,8.92S125.4,186.16,79.2,184.54c-3.61-.13-7-.23-10.15-.32C58.21,201.1,43.7,216,34.45,233.81c-13.75,26.42-22.62,58.76-7.57,86.61C48.36,360.16,107,367,118.12,414.11,134.85,485.27,210.8,506.63,276,488c28.62-8.18,52.36-24.79,70.48-48.27,13.16-17.06,27.8-36.07,49.27-43.86,13-4.7,26.93-7,39.46-12.94C479.38,362,494.25,302,486,257Z" style="opacity:0.30000000000000004"></path></g><g id="freepik--Clouds--inject-112"><path d="M282.63,115.25c-8.38-4.56-12.18-.76-15.23-4.56s8.38-13.7-14.46-23.6c0,0-1.52-21.31-32.72-22.07S197.38,86.33,189,91.66s-10.65-3-19,2.28-4.56,16-11.41,17.51-16-6.85-24.36-1.53-8.37,9.9-12.18,9.9-11.41-3-16,0-9.89,6.85-9.89,6.85H288.72S291,119.82,282.63,115.25Z" style="fill:none;stroke:#263238;stroke-linecap:round;stroke-linejoin:round"></path><path d="M168.72,112.13a27,27,0,0,1-3.4,1.6" style="fill:none;stroke:#263238;stroke-linecap:round;stroke-linejoin:round"></path><path d="M209.91,76.57a13,13,0,0,0-7.43,9.29c-1.4,7-4.65,11.61-8.36,12.08s-17.65-.93-20,4.18a20.69,20.69,0,0,0-1.3,4.66" style="fill:none;stroke:#263238;stroke-linecap:round;stroke-linejoin:round"></path><path d="M91.52,123.62c-2.46-1.34-3.57-.22-4.47-1.34s2.46-4-4.24-6.92c0,0-.45-6.25-9.6-6.48s-6.71,6.26-9.16,7.82-3.13-.89-5.59.67-1.34,4.69-3.35,5.14-4.69-2-7.14-.45S45.51,125,44.39,125s-3.35-.9-4.69,0-2.9,2-2.9,2H93.31S94,125,91.52,123.62Z" style="fill:none;stroke:#263238;stroke-linecap:round;stroke-linejoin:round"></path><path d="M58.09,122.71a7.8,7.8,0,0,1-1,.47" style="fill:none;stroke:#263238;stroke-linecap:round;stroke-linejoin:round"></path><path d="M70.18,112.27A3.84,3.84,0,0,0,68,115c-.41,2-1.36,3.41-2.45,3.54s-5.18-.27-5.86,1.23a6.2,6.2,0,0,0-.39,1.37" style="fill:none;stroke:#263238;stroke-linecap:round;stroke-linejoin:round"></path><path d="M445.21,55.37c-6.29-3.43-9.14-.57-11.43-3.43s6.29-10.29-10.86-17.72c0,0-1.14-16-24.58-16.58s-17.15,16-23.44,20-8-2.29-14.29,1.71-3.43,12-8.58,13.15-12-5.14-18.29-1.14-6.29,7.43-9.15,7.43-8.57-2.29-12,0S305.16,64,305.16,64H449.79S451.5,58.8,445.21,55.37Z" style="fill:none;stroke:#263238;stroke-linecap:round;stroke-linejoin:round"></path><path d="M359.66,53a21,21,0,0,1-2.56,1.21" style="fill:none;stroke:#263238;stroke-linecap:round;stroke-linejoin:round"></path><path d="M390.6,26.32a9.76,9.76,0,0,0-5.59,7c-1,5.23-3.48,8.72-6.28,9.07s-13.25-.7-15,3.14a15.09,15.09,0,0,0-1,3.5" style="fill:none;stroke:#263238;stroke-linecap:round;stroke-linejoin:round"></path><path d="M463.61,88.57c-2.46-1.34-3.58-.23-4.47-1.34s2.46-4-4.24-6.93c0,0-.45-6.25-9.61-6.47s-6.7,6.25-9.16,7.81-3.12-.89-5.58.67-1.34,4.69-3.35,5.14-4.69-2-7.15-.45-2.45,2.91-3.57,2.91-3.35-.9-4.69,0-2.91,2-2.91,2h56.51S466.06,89.91,463.61,88.57Z" style="fill:none;stroke:#263238;stroke-linecap:round;stroke-linejoin:round"></path><path d="M430.18,87.65a8,8,0,0,1-1,.47" style="fill:none;stroke:#263238;stroke-linecap:round;stroke-linejoin:round"></path><path d="M442.27,77.22a3.79,3.79,0,0,0-2.18,2.72c-.41,2-1.37,3.41-2.46,3.55s-5.18-.28-5.86,1.22a6.11,6.11,0,0,0-.38,1.37" style="fill:none;stroke:#263238;stroke-linecap:round;stroke-linejoin:round"></path></g><g id="freepik--Iceberg--inject-112"><path d="M149.16,168.8l10.06-16.47L172,149.58l10.06-14.64,13.73-6.4,4.57-13.72,7.32-13.73,12.81-5.49,10.06-21.95,13.73-13.73,12.8-4.57,9.15,9.15,6.67,1.3,3.4,7.85,9.15,5.49,2.74,8.23A4.09,4.09,0,0,1,291,91c0,2.75,6.41,9.15,6.41,9.15l8.23,7.32,21,37.51,10.06,5.49.91,7.32,7.32,9.15L354.09,177l25.62,25.62,4.57,57.63-1.83,26.54L381.54,306l-8.24,9.15-11.89,36.59-1.83,14.64-10.06,6.4-18.3,16.47L323,412.15s-10.07,10.07-12.81,11-21.05,6.41-21.05,6.41l-11.89,6.4s-11.89,14.64-14.64,15.55-11.89,15.56-15.55,17.39-13.72,3.66-13.72,3.66l-9.15-16.47-14.64-.92-22.87-55.8L172,393.86l-19.21-68.62V284.07l-11-4.57L140,254.79l-9.15-21-2.74-27.44Z" style="fill:#20E78F"></path><path d="M177.87,156.86l6.86-7.83-5,12.59,5,6.55,3.52-7.06-.28-5.9,4-2.67-5.34-12.45-5.43-.63L172,149.58l4.41,5.87C176.93,155.89,177.43,156.38,177.87,156.86Z" style="fill:#fff"></path><path d="M163.5,166.78c1.78-.45.45-6.67.45-6.67l-2.23-4.47-2.17-.57-19.14,32.24,19.64.5-2.77-15.69S161.72,167.22,163.5,166.78Z" style="fill:#fff"></path><polygon points="184.73 175.72 180.2 180.25 175.66 180.25 182.21 171.69 178.18 167.16 175.16 172.19 168.4 173.45 165.09 188.31 178.69 188.31 181.2 184.28 188.76 178.24 188.25 166.66 184.73 175.72" style="fill:#fff"></polygon><polygon points="256.25 143.99 239.63 137.44 232.07 145.5 234.27 146.38 237.96 146.85 241.64 143.99 245.67 145 244 147.63 247.36 148.07 251.72 146 253.11 151.58 254.76 152.62 256.25 150.54 259.26 155.46 268.04 161 257.25 144.21 256.25 143.99" style="fill:#fff"></polygon><polygon points="275.89 124.85 277.91 118.3 267.33 125.35 275.89 124.85" style="fill:#fff"></polygon><path d="M223,145.5s4.53-5,6.55-6-2.52-4.54-2.52-4.54l-4.54-8.06,1.52-4-.91-7.66s-2.67-7.12-4-7.57a20.13,20.13,0,0,0-2.44-.48l-3.34-.41-3.56-4.44-6.91,13-7.55,21.15,1.17,5.43a7.48,7.48,0,0,1,.39,1.79l2,11.92,4.53,4v11.08l5-6,7,2,10.78-15.89,7.56-4.44Z" style="fill:#fff"></path><polygon points="252.72 141.47 263.3 131.4 267.83 123.34 274.38 118.3 274.27 104.5 267.15 96.94 263.15 88.93 263.15 83.36 258.26 77.5 256.92 75.14 256.92 84.48 255.35 101.47 254.74 111.75 255.24 123.34 252.72 141.47" style="fill:#fff"></polygon><polygon points="319.64 169.89 316.08 165.44 316.53 156.55 309.14 153.56 310.14 162.63 296.54 170.18 290 174.71 288.99 177.74 311.15 169.68 306.62 174.21 295.54 177.74 286.97 180.25 285.83 182.79 301.08 181.26 311.15 174.71 319.64 169.89" style="fill:#fff"></polygon><path d="M266.45,174.88a91.79,91.79,0,0,0-7.68,7.39c-1.51,2-10.07-1-10.07-1l8.05-9.57-8.05,1,3.35-4.89L242,158.27l-7.37,3.35,3.2-7.3-11.56-3.56L219,164.14l4.13,3.08,3.56-2.67,3.11,2.23,7.12,6.67-1.78,4.45,5.34,10.68,15.29-.27,21.15-6.54-4.43-4.44Z" style="fill:#fff"></path><path d="M234.59,103.7s-.5,10.07-1,13.09-6.05,8.06-6.05,8.06l3,8.56,1-6.55,6.55-7,3.52-12.59v19.14l-.5,8.56L248.7,141s-1-6.55-1.52-10.08,1-12.59,1-12.59l6.55,3.53V111.75s-.12-.14-.3-.4l-.19,2.05L252,107.54a12.14,12.14,0,0,1-1.33-3.48s-1.33-7.57-1.33-9.35a7.81,7.81,0,0,1,.18-1.58,33.33,33.33,0,0,1,1.67-7.06c1.51-4,0-6.55,0-6.55l-4-8.56-5.54-2-2-2-7,7.55L225,93.12,218.11,100l1.81-.49,9.13-6.92-6.59,7.91,5.1,6.19-.62,1.18,1.61,1.84L224,122.84l4-7.06Z" style="fill:#fff"></path><path d="M260.48,65.8,254.25,60l2.86-4.67,9.15,9.15Zm77.14,92-.91-7.32L326.65,145l-21-37.51-8.23-7.32S291,93.78,291,91a4.26,4.26,0,0,0,0-.64l0-.13a3.19,3.19,0,0,0-.16-.55h0a4.41,4.41,0,0,0-2.5-2.34l-2.74-8.23-9.15-5.49-3.4-7.85-1.33,4,1.78,7.12-5.78,2.67-4.45,1.33v8l4,8,7.12,7.56.89,10.68,8.45-8.9,3.2-6.64,4.81,1.75,6.67.44,4.45,5.34-7.56,7.12-11.57.89-4,8,7.11,15.13L277.83,141l-15.13-6.23L256,142.31,268,161l-20.46-12.9-13.79-1.78-7.56,4.44,11.56,3.56,16.46,15.57,31.58,12.9,5.34-12,12.46-6.23.89-12.45,3.11-7.12,9.79,8.9,5.78,8.89,17.35,6.68-4.45-8.9ZM219.11,107.61c1.33.45,4,7.57,4,7.57l4.45-8.46-6.23-7.56-11.56,3.12,3.56,4.44A47.84,47.84,0,0,1,219.11,107.61Zm30.25-12.9c0,1.78,1.33,9.35,1.33,9.35l3.56,9.34,2.67-28.92V75.14l5.78-5.34L259.14,68l-4.44-3.11-4.9,8.9L252,81.37s0,5.34-.89,7.12A16.45,16.45,0,0,0,249.36,94.71Zm76.07,73-8.9-11.12-.45,8.89,3.56,4.45s-4.45,3.56-5.78,4-8,4.89-8,4.89l-3.56,5.34,21.36-1.34L338.33,181l-5.79-7.11Zm16.45-4,2.23,5.79h-3.56L347.22,181l9.79-1.33Zm-145-20c0-1.78-3.12-8.46-2.67-9.79s1.62-5.32,1.62-5.32l-12.3,7.54,3.11,4L192,152.54l-4,2.67,2.22,8.45,6.68-9.34Zm-22.25,10.23-2.59-4.3-10.75,5.19,2.67,5.34s1.33,6.22-.45,6.67-6.22,5.34-6.22,5.34l2.22,11.56,6.23.45s2.22-9.34,2.67-10.68,5.78-2.22,6.67-4.89,4-8.45,4-9.79S174.62,153.88,174.62,153.88Zm62.28,19.57-7.12-6.67-3.11-2.23-3.56,2.67s-.82.58-1.94,1.34l.61,1.33S216,179.23,215.55,181s-4-4.45-4-4.45l1.19-6.36a18.91,18.91,0,0,1-2.08-2.53h-4.45l-11.57,16.9L192.86,189c10.23,1.33,47.6-.44,47.6-.44l-5.34-10.68Z" style="fill:#263238"></path><path d="M378.41,207.32,367.2,221.83s-15.83,3.95-17.81,3.95-19.78,3.3-19.78,3.3L327,242.27l-5.27,11.87,4,9.23s-13.19-9.89-17.81-11.21-25.71-9.89-25.71-9.89l-9.23-20.44-10.55-14.51-10.55-10.55-12.53-1.32-19.12.66L215.54,202,209,238.31l2,14.51,2.64,9.23,3.3-19.78s5.93-11.87,7.91-13.19,8.57-5.94,8.57-5.94v6.6l-7.91,17.8v15.17c0,4.61,4,19.12,4,19.12l4.61,7.25,6.6,5.28,7.25,17.14s9.23,10.55,11.87,14.51,3.3,6.59,6.59,10.55,9.23,10.55,9.23,10.55l2.64,36.26s-1.32,11.87,0,13.85S296,411.07,298,411.07s12.53,3.29,12.53,3.29l5.28-1.32,2-3.29,1.32-23.08,3.3,15.82,4.61-5.27,2-23.74,3.3,8.57,8.57-3.95,7.25-7.92,1.32-10.55-.66-11.2,5.28-4.62,4.61-10.55V313.48l10.55-3.3,9.9-5.93-1.32-35.61-.66-13.85,2.63-3.95-2-33.63Z" style="opacity:0.30000000000000004"></path><path d="M272.91,231.06l1.31,11.87,9.24,7.25s4.61,5.27,7.25,5.27a19.53,19.53,0,0,0,5.93-1.31l5.94,10.54,3.29,4s6.6,15.83,9.24,15.17l7.91-2h4l9.9,9.89-2.64,14.51,3.29,27,8.58-30.33,5.27,4-2,27-2,7.25s-2.64,6.6-2.64,9.23v19.13l-8.57,9.23L329,373.48l-2-5.27-3.29,7.25s1.32,4,.66,6.59-5.28,4.62-5.28,4.62l1.32-9.23-5.27,1.32v19.78l-11.21.66-6.6-8.57,3.3-7.92L296,374.14l-2.63,4v10.55l-4,.66-.66-11.87-2.64-5.94s-2.63-14.5-2.63-17.14-2-11.21-2-11.21l-7.91-6.59s-6.6-4-5.28-11.87.66-9.89,1.32-12.53-3.3,0-3.3,0l-2.64,12.53-2-5.28s-4.62-2.63-4.62-4.61-4-3.3-4-5.28V293.7s-8.57-4.62-9.89-6.6-9.23-4-9.23-5.93,2.64-10.55,2.64-10.55,4-2.64,4-5.28-2-26.37-2-26.37l3.3-10.55V217.87s-5.94-4-7.92-4-12.53,3.3-12.53,3.3L222.79,206l9.23-3.3,13.19-3.29L261.7,210v7.25L265,229.74l4-7.91,2.64,3.95Z" style="opacity:0.30000000000000004"></path><path d="M218.84,283.15l4.61,14.5,9.23,6.6s6.6,7.91,6.6,10.55,1.32,9.89,3.29,11.21,10.55,9.89,12.53,11.21,5.28,3.29,5.28,5.93S263,357,263,357l-4,12.53s-27.69-4.62-27.69-7.92-.66-21.76-.66-21.76l-2.64,12.53s-5.94,2-7.25,0-8.58-7.25-8.58-9.23-2.63-4-1.32-6.59,1.32-20.44,1.32-20.44l-3.29-2s-2,5.93-4,5.93-10.55-16.48-10.55-16.48,6.59-3.3,7.91-5.94,4-11.21,4-11.21L205,275.24l-8.57-11.87,3.3-5.94,10.55,14.51,8.57,2.64Z" style="opacity:0.30000000000000004"></path><path d="M185.21,232.38v29.67c0,2-1.32,7.91-1.32,10.55s4,9.23,4,9.23-.66,7.25-1.32,9.23.66,7.91,1.32,10.55,4,10.55,4,10.55l-9.89-4-10.55,5.28-6.59-15.83-7.25-6.59V280.51l-7.26-2.64-4.61-23.73-1.32,18.46-.66-22.42,5.93-15.83-2-9.23L142.35,202l-3.3,21.76,3.3,18.47L131.8,226.44V207.32l10.55-13.19,15.82,5.28H170L183.89,202l10.55-1.31-1.32,9.89s-5.93,4.61-7.91,5.27-5.28,2-5.28,2Z" style="opacity:0.30000000000000004"></path><path d="M193.12,322.71l4,15.17,7.25,7.25c2.64,2.64,8.57,7.25,9.23,9.23s4,9.89,4,9.89l3.95,5.93s7.26,4,9.9,4.62,7.91,4,7.91,4l3.29,4.61L257.08,388l2.64,12.53a87.28,87.28,0,0,0,7.25,6.59c2,1.32,11.21,7.91,13.19,7.91s11.21,1.32,11.21,1.32l2.64,3.3a3.48,3.48,0,0,1-2,4.61c-3.3,1.32-15.17,5.94-17.15,6.6s-10.55,6.59-10.55,6.59-16.48-9.23-19.12-9.89-12.53-4-13.19-5.93-2-20.44-2-22.42-6.6-11.21-6.6-11.21l-13.18-9.89s-11.21-7.26-11.87-9.89-4.62-12.53-5.28-14.51-5.93-16.48-5.93-16.48h-3.3s2,16.48,2.64,19.12,2,11.87,2.64,13.84-4,9.9-4,12.53.66,11.21.66,11.21h-4l-5.27-13.84S178,365.57,178,363.59s-4.62-17.14-4.62-17.14l-4,9.89-3.95-7.91V326l-7.26-15.17L170,321.39l11.87-5.93Z" style="opacity:0.30000000000000004"></path><path d="M199.06,378.76l15.16,14.5,4.62,8.57v7.26l3.29,11.21.66,3.29,7.26,7.92,5.27,2.63,19.12,4,.66,8.57,4-1.32-5.94,9.89s-4,11.21-5.93,11.21-9.89,3.3-9.89,3.3-.66-7.91,0-9.89,2-7.91,2-7.91l-2.64-4.62L236,450l-2.64,2.64.66,5.27.66,2.64-5.27-5.94L224.77,452h-5.93l1.32-12.53-1.32-5.94-4.62,4v7.91l-.66,4-5.27-10.55L203,431.51l.66-11.87-1.32-9.23-4.61-1.32-7.92-8.57-.65-11.21,5.27-11.87-2.64-10.55Z" style="opacity:0.30000000000000004"></path><path d="M324.34,225.78l-25.72-14.5,2,10.55s6.59,5.93,8.57,8.57,7.91,12.53,7.91,12.53l5.94-2Z" style="opacity:0.30000000000000004"></path><path d="M354.67,186.22l-2,7.25s5.93,9.23,8.57,9.23,9.23,9.24,10.55,5.28a57.66,57.66,0,0,0,2-9.23Z" style="opacity:0.30000000000000004"></path><polygon points="192.46 217.21 183.89 222.49 191.14 233.69 197.74 228.42 192.46 217.21" style="opacity:0.30000000000000004"></polygon><polygon points="193.12 245.56 189.16 248.2 190.48 257.43 195.1 255.45 201.03 250.84 195.1 238.97 193.12 245.56" style="opacity:0.30000000000000004"></polygon><polygon points="199.06 274.58 187.85 281.83 193.78 293.04 199.06 285.79 199.06 274.58" style="opacity:0.30000000000000004"></polygon><polygon points="268.29 354.36 259.06 369.53 264.99 383.37 269.61 395.24 273.56 391.94 273.56 373.48 268.29 354.36" style="opacity:0.30000000000000004"></polygon><polyline points="284.77 240.29 295.98 225.12 293.35 213.91 274.88 200.73 265.65 196.11 265.65 205.34 276.86 221.83 281.48 237.65 282.14 242.27" style="opacity:0.30000000000000004"></polyline><path d="M149.16,168.8l10.06-16.47L172,149.58l10.06-14.64,13.73-6.4,4.57-13.72,7.32-13.73,12.81-5.49,10.06-21.95,13.73-13.73,12.8-4.57,9.15,9.15,6.67,1.3,3.4,7.85,9.15,5.49,2.74,8.23A4.09,4.09,0,0,1,291,91c0,2.75,6.41,9.15,6.41,9.15l8.23,7.32,21,37.51,10.06,5.49.91,7.32,7.32,9.15L354.09,177l25.62,25.62,4.57,57.63-1.83,26.54L381.54,306l-8.24,9.15-11.89,36.59-1.83,14.64-10.06,6.4-18.3,16.47L323,412.15s-10.07,10.07-12.81,11-21.05,6.41-21.05,6.41l-11.89,6.4s-11.89,14.64-14.64,15.55-11.89,15.56-15.55,17.39-13.72,3.66-13.72,3.66l-9.15-16.47-14.64-.92-22.87-55.8L172,393.86l-19.21-68.62V284.07l-11-4.57L140,254.79l-9.15-21-2.74-27.44Z" style="fill:none;stroke:#263238;stroke-miterlimit:10"></path><path d="M23.27,184.54c2.35-.33,4.72-.47,7.09-.61s4.74-.22,7.11-.29c4.75-.13,9.49-.16,14.24-.17,9.49,0,19,.15,28.47.37,19,.56,37.93,1.48,56.88,2.24s37.9,1.55,56.85,1.88,37.9.29,56.77-.85,37.81-2.77,56.72-4.38,37.84-3.21,56.84-3.76,38-.14,57,.67q14.24.69,28.43,1.7c9.46.67,18.92,1.44,28.36,2.39-18.94-1.2-37.88-2.16-56.84-2.62s-37.92-.76-56.83.17c-37.84,1.74-75.54,6.42-113.46,8.82-19,1.06-38,1-57,.59s-37.95-1.23-56.9-2.32-37.88-2.21-56.82-3.07c-9.48-.44-18.95-.82-28.43-1-4.74-.1-9.48-.18-14.22-.17-2.37,0-4.74,0-7.11.07S25.63,184.28,23.27,184.54Z" style="fill:#263238"></path><path d="M472.36,194.32c2.39-.31,3.76-.51,3.76-.51" style="fill:none;stroke:#263238;stroke-linecap:round;stroke-linejoin:round"></path><path d="M449.34,196.77c6.91-.57,13.21-1.25,18-1.82" style="fill:none;stroke:#263238;stroke-linecap:round;stroke-linejoin:round"></path><path d="M326,188.35c44.24,2.73,56.08,9.55,99.07,9.55,4.66,0,9.52-.17,14.31-.43" style="fill:none;stroke:#263238;stroke-linecap:round;stroke-linejoin:round"></path><path d="M98.6,196.57c23.84,4,45.92,4.68,79.05,2C216.92,195.42,272.8,187,316,187.94" style="fill:none;stroke:#263238;stroke-linecap:round;stroke-linejoin:round"></path><path d="M32.45,188A180,180,0,0,1,78,192.44c4.5,1,8.84,1.95,13.08,2.76" style="fill:none;stroke:#263238;stroke-linecap:round;stroke-linejoin:round"></path><path d="M20,189s2-.32,5.52-.62" style="fill:none;stroke:#263238;stroke-linecap:round;stroke-linejoin:round"></path></g></svg>